<svg width="125" height="25" viewBox="0 0 125 25" fill="none" xmlns="http://www.w3.org/2000/svg">
<path d="M11.352 3.96561C9.78413 4.1143 6.25182 3.98848 6.25182 3.98848C0.869025 3.84666 0.467937 4.41854 0.467937 4.41854C-0.584921 5.30611 0.467937 7.67831 0.467937 7.67831C1.35215 9.82403 1.83528 11.224 1.83528 11.224C2.12015 12.1116 2.31841 13.1112 2.31841 13.1112C2.66025 14.4563 5.11008 13.5848 5.11008 13.5848C5.50889 13.4018 6.39083 13.2256 6.39083 13.2256C7.3024 13.1387 8.35525 13.5116 8.35525 13.5116C9.97784 13.8547 10.4929 12.8825 10.4929 12.8825C10.6638 12.3381 11.2335 11.423 11.2335 11.423C12.0038 10.2518 13.084 7.96425 13.084 7.96425C14.8798 3.53097 11.3475 3.96561 11.3475 3.96561H11.352ZM7.56219 10.7368C7.56219 10.7368 6.56403 10.6933 6.28144 10.7436C6.28144 10.7436 5.16933 10.5652 5.16933 9.19267C5.16933 9.19267 4.77052 7.38779 6.65063 7.39008H7.961C7.961 7.39008 9.27138 7.56164 9.2144 8.73516C9.2144 8.73516 9.301 10.8809 7.56219 10.7368Z" fill="white"/>
<path d="M15.3675 9.46946C15.3675 9.46946 16.2608 9.56325 16.0511 9.06685C16.0511 9.06685 15.7845 7.65772 15.1008 6.87538C15.1008 6.87538 13.2595 3.82607 15.2535 3.08261C15.2535 3.08261 16.5001 2.61595 16.8943 4.67475C16.8989 4.69763 16.9035 4.71821 16.9057 4.74109C17.2863 6.87538 17.3843 7.294 17.2521 9.02796C17.2521 9.02796 17.1382 9.29561 17.7467 9.3345H18.501C18.501 9.3345 19.3123 9.39168 18.8861 7.24825C18.8861 7.24825 17.8378 0.870548 19.9253 0.509115C19.9253 0.509115 21.5593 0.241471 22.186 2.6068C22.186 2.6068 22.3569 4.34077 22.186 5.73389C22.186 5.73389 22.1677 6.38126 22.8514 6.26689C22.8514 6.26689 23.3824 6.43617 23.9339 4.98814C23.9339 4.98814 25.4334 2.0738 26.9147 3.19699C26.9147 3.19699 28.1294 4.60841 26.9147 6.228C26.9147 6.228 24.9594 8.13582 24.6176 8.90672C24.6176 8.90672 23.9339 9.98416 25.2443 9.75541C25.2443 9.75541 29.3463 9.01195 29.556 10.2129C29.556 10.2129 29.8978 11.224 26.7073 11.1234C26.7073 11.1234 25.5246 11.0364 25.226 11.3956C25.226 11.3956 24.9549 12.0384 25.8915 12.4067C25.8915 12.4067 29.3851 13.6259 32.9379 14.7697C32.9379 14.7697 35.4834 15.3988 37.1402 16.2726C37.1402 16.2726 40.6611 18.2971 39.1023 21.4036C39.1023 21.4036 35.9757 24.6817 32.2907 21.5935C32.2907 21.5935 26.2903 16.9795 24.4672 15.2638C24.4672 15.2638 23.8086 14.5501 23.3049 14.3397C23.3049 14.3397 22.644 14.1978 23.0246 16.769C23.0246 16.769 24.2598 22.6412 22.0743 23.3069C22.0743 23.3069 19.0547 24.4506 18.2389 21.9732C18.2389 21.9732 17.8013 20.3536 18.7334 15.2066C18.7334 15.2066 18.7334 14.2527 17.6692 14.9207C17.6692 14.9207 16.7963 15.4926 15.5429 16.4831C15.5429 16.4831 13.4919 17.7024 12.1246 16.2155C12.1246 16.2155 11.213 14.82 13.0361 13.8593C13.0361 13.8593 15.8096 12.3266 16.4158 11.6403C16.4158 11.6403 16.9468 10.5675 15.2376 10.7413C15.2376 10.7413 12.806 11.1828 12.9199 10.0391C12.9199 10.0391 12.806 9.08515 15.3697 9.46717L15.3675 9.46946Z" fill="white"/>
<path d="M48.512 6.04957C47.0375 6.18911 43.7126 6.07016 43.7126 6.07016C38.6466 5.93519 38.2705 6.47277 38.2705 6.47277C37.2792 7.30772 38.2705 9.54038 38.2705 9.54038C39.1023 11.558 39.5581 12.8779 39.5581 12.8779C39.827 13.7129 40.0139 14.6531 40.0139 14.6531C40.3352 15.9181 42.6415 15.0991 42.6415 15.0991C43.0175 14.9253 43.847 14.7606 43.847 14.7606C44.7039 14.6805 45.6975 15.0305 45.6975 15.0305C47.2244 15.353 47.7075 14.438 47.7075 14.438C47.8693 13.9279 48.4049 13.0655 48.4049 13.0655C49.1295 11.9629 50.1482 9.81031 50.1482 9.81031C51.8369 5.6401 48.512 6.04728 48.512 6.04728V6.04957ZM44.9477 12.4204C44.9477 12.4204 44.0088 12.3792 43.7422 12.4273C43.7422 12.4273 42.6962 12.2603 42.6962 10.9678C42.6962 10.9678 42.3202 9.27044 44.0909 9.27273H45.3238C45.3238 9.27273 46.5567 9.43515 46.5042 10.5377C46.5042 10.5377 46.584 12.5554 44.95 12.4204H44.9477Z" fill="white"/>
<path d="M52.2927 11.2286C52.2927 11.2286 53.1336 11.3155 52.9353 10.8511C52.9353 10.8511 52.6847 9.52436 52.042 8.79006C52.042 8.79006 50.3077 5.91918 52.1856 5.21919C52.1856 5.21919 53.3569 4.77998 53.7284 6.71753C53.733 6.73812 53.7352 6.75871 53.7398 6.7793C54.0976 8.78777 54.191 9.18123 54.0657 10.8145C54.0657 10.8145 53.9586 11.0662 54.5306 11.1028H55.2416C55.2416 11.1028 56.005 11.1577 55.6039 9.13777C55.6039 9.13777 54.6172 3.13751 56.5816 2.79667C56.5816 2.79667 58.1176 2.54504 58.7078 4.77083C58.7078 4.77083 58.8696 6.40414 58.7078 7.71262C58.7078 7.71262 58.6896 8.3234 59.3345 8.21588C59.3345 8.21588 59.8359 8.37601 60.3532 7.01263C60.3532 7.01263 61.7661 4.26985 63.1585 5.3267C63.1585 5.3267 64.3026 6.65348 63.1585 8.17928C63.1585 8.17928 61.3172 9.97501 60.9958 10.7002C60.9958 10.7002 60.3532 11.7136 61.5861 11.4985C61.5861 11.4985 65.4466 10.7985 65.6426 11.9286C65.6426 11.9286 65.9639 12.8802 62.9625 12.7841C62.9625 12.7841 61.8504 12.7041 61.5679 13.0403C61.5679 13.0403 61.3126 13.6442 62.1946 13.992C62.1946 13.992 65.483 15.1403 68.8239 16.2155C68.8239 16.2155 71.219 16.8079 72.7778 17.6292C72.7778 17.6292 76.0914 19.5347 74.626 22.4582C74.626 22.4582 71.6839 25.5441 68.2177 22.6366C68.2177 22.6366 62.5706 18.2948 60.8546 16.6798C60.8546 16.6798 60.2347 16.0096 59.7607 15.8106C59.7607 15.8106 59.1385 15.6756 59.4963 18.0981C59.4963 18.0981 60.6586 23.6226 58.603 24.2516C58.603 24.2516 55.7612 25.3291 54.9932 22.9958C54.9932 22.9958 54.5807 21.47 55.4581 16.6272C55.4581 16.6272 55.4581 15.7305 54.4576 16.3573C54.4576 16.3573 53.635 16.8949 52.4568 17.8282C52.4568 17.8282 50.5265 18.9765 49.2389 17.5766C49.2389 17.5766 48.3821 16.2635 50.0958 15.3599C50.0958 15.3599 52.7052 13.9188 53.2772 13.2714C53.2772 13.2714 53.7785 12.2626 52.1696 12.425C52.1696 12.425 49.8816 12.839 49.9887 11.7639C49.9887 11.7639 49.8816 10.8672 52.295 11.2263L52.2927 11.2286Z" fill="white"/>
<path d="M98.9297 0.5C98.9297 0.5 97.2505 0.5 97.1334 2.11893C97.1334 2.11893 97.1724 3.00658 97.1334 3.75839C97.1334 3.75839 97.1927 4.64604 96.7429 4.74555C96.7429 4.74555 95.1996 4.98246 94.0093 5.67426C94.0093 5.67426 93.3845 5.87169 92.8769 5.43734C92.8769 5.43734 92.2521 4.80556 91.393 5.39786C91.393 5.39786 90.437 5.91117 89.9872 6.9773C89.9872 6.9773 89.656 7.80651 90.084 8.25981C90.084 8.25981 90.4355 8.53621 90.6495 8.67362C90.6495 8.67362 91.1368 8.92949 90.7869 9.50283C90.7869 9.50283 90.4558 9.83767 89.9872 10.1946C89.9872 10.1946 89.3624 10.5895 89.4217 10.9843C89.4217 10.9843 89.5186 11.5561 91.1587 11.5972C91.1587 11.5972 93.5204 12.1895 95.5917 11.5972C95.5917 11.5972 96.8225 11.2813 97.6613 11.2023C97.6613 11.2023 98.1487 11.1423 97.4661 11.7741C97.4661 11.7741 96.3727 13.0976 96.0993 14.0643C96.0993 14.0643 95.7479 14.8729 96.3149 15.1304C96.3149 15.1304 96.8803 15.4652 97.8581 15.6437C97.8581 15.6437 99.5576 15.9406 99.6935 17.3811C99.6935 17.3811 100.065 20.0267 98.4626 21.4687C98.4626 21.4687 96.9787 22.8302 96.0228 22.9881C96.0228 22.9881 95.0075 23.2156 93.8063 23.0181C93.8063 23.0181 91.8632 22.6722 91.5117 23.0939C91.5117 23.0939 91.0337 24.0053 92.274 24.3512C92.274 24.3512 93.5236 24.686 96.2383 24.3512C96.2383 24.3512 98.1315 24.0953 99.089 22.5159C99.089 22.5159 100.339 20.4231 100.357 19.6539C100.357 19.6539 100.376 19.0711 100.767 19.556C100.767 19.556 102.133 21.4324 103.227 22.7749C103.227 22.7749 104.008 23.6831 104.554 23.7226C104.554 23.7226 105.882 23.9784 108.459 22.7354C108.459 22.7354 109.526 22.3011 108.494 22.0673C108.494 22.0673 107.15 21.5635 106.351 20.859C106.351 20.859 103.636 18.3919 102.602 17.3448C102.602 17.3448 101.958 16.762 101.548 16.713C101.548 16.713 100.679 16.5645 100.357 16.664C100.357 16.664 100.026 16.6735 100.27 16.3181C100.27 16.3181 100.465 15.8838 100.348 15.2725C100.348 15.2725 100.026 14.5018 98.8937 14.2159C98.8937 14.2159 98.4251 14.0579 98.0346 13.791C98.0346 13.791 97.2536 13.4056 97.9269 13.2572C97.9269 13.2572 99.3124 12.6854 99.9871 11.6588C99.9871 11.6588 101.255 10.1393 101.149 9.06217C101.149 9.06217 101.14 8.57886 100.437 8.15399C100.437 8.15399 99.7528 7.74017 98.2314 7.82862C98.2314 7.82862 96.0962 7.92655 94.8731 8.2835C94.8731 8.2835 94.0531 8.41459 93.3627 8.50778C93.3627 8.50778 92.477 8.62624 92.438 8.27086C92.438 8.27086 92.3083 7.7844 93.3361 7.3232C93.3361 7.3232 95.6526 6.23022 99.4795 5.07249C99.4795 5.07249 100.164 4.78029 102.825 4.83557C102.825 4.83557 103.789 4.84821 104.634 4.91455C104.634 4.91455 106.157 5.04564 106.404 6.1781C106.404 6.1781 106.573 6.73091 106.013 7.15262C106.013 7.15262 105.454 7.6533 105.623 7.99446C105.623 7.99446 105.779 8.38932 106.587 7.57275C106.587 7.57275 106.743 7.36268 107.355 6.82251C107.355 6.82251 108.031 6.29656 107.55 5.36153C107.55 5.36153 106.379 3.22928 104.634 3.26877C104.634 3.26877 102.447 3.11082 100.963 3.3351C100.963 3.3351 100.039 3.63836 100.209 3.11082C100.209 3.11082 100.404 2.84705 100.378 2.17579C100.378 2.17579 100.29 1.26445 99.8965 0.92487C99.8965 0.92487 99.4607 0.501579 98.9328 0.503159L98.9297 0.5Z" fill="white"/>
<path d="M94.4123 15.5568C94.4123 15.5568 94.178 15.8854 92.4598 16.465C92.4598 16.465 90.2074 17.3606 88.9844 17.9134C88.9844 17.9134 88.4892 18.0839 87.7863 18.0982C87.7863 18.0982 86.5367 17.9923 87.1881 18.651C87.1881 18.651 87.9816 19.3349 88.308 19.6113C88.308 19.6113 89.0375 20.2557 90.2215 19.466C90.2215 19.466 90.8463 19.1627 92.9159 18.3872C92.9159 18.3872 94.3342 17.8344 94.4904 17.3337C94.4904 17.3337 94.7903 16.8867 94.8809 15.8727C94.8809 15.8727 94.7903 15.1746 94.4123 15.5568Z" fill="white"/>
<path d="M95.8447 18.125C95.8447 18.125 96.6648 17.6591 96.9897 17.2958C96.9897 17.2958 97.263 16.8741 97.4458 17.1647C97.4458 17.1647 97.9659 18.0066 97.1334 18.5862C97.1334 18.5862 96.7819 18.9542 96.5742 19.3096C96.5742 19.3096 95.3902 20.9806 93.4501 21.5872C93.4501 21.5872 92.1099 21.982 90.3527 21.7577C90.3527 21.7577 88.5048 21.336 89.2718 21.2318C89.2718 21.2318 90.0793 21.0344 92.2271 20.2573C92.2271 20.2573 93.4064 19.695 94.8825 18.7568C94.8825 18.7568 95.3683 18.3746 95.8463 18.125H95.8447Z" fill="white"/>
<path d="M103.642 14.0169C103.642 14.0169 102.315 14.1353 102.38 15.5837C102.38 15.5837 102.446 16.544 103.642 16.7556C103.642 16.7556 105.021 17.062 105.153 15.44C105.153 15.44 105.192 13.9916 103.642 14.0185V14.0169Z" fill="white"/>
<path d="M123.909 12.3458C123.909 12.3458 123.805 10.3715 121.722 9.45071C121.722 9.45071 118.806 8.1603 114.928 8.05606C114.928 8.05606 112.272 7.95024 111.804 8.79366C111.804 8.79366 110.762 9.89927 110.371 11.7678C110.371 11.7678 109.668 15.2425 110.11 17.032C110.11 17.032 110.579 18.9005 111.438 20.401C111.438 20.401 112.532 22.2442 113.755 22.1652C113.755 22.1652 114.015 22.0073 114.743 22.35C114.743 22.35 117.817 23.0087 121.694 20.3757C121.694 20.3757 123.62 18.8753 123.908 15.9533C123.908 15.9533 124.115 13.9 123.908 12.3474L123.909 12.3458ZM112.922 13.701C112.7 12.9776 112.661 11.2134 112.661 11.2134C112.649 10.4758 113.586 10.0951 113.586 10.0951C114.809 9.38437 116.424 10.0951 116.424 10.0951C116.763 10.1346 116.607 10.5816 116.607 10.5816C116.502 11.0033 116.541 11.6604 116.541 11.6604C116.535 12.3316 116.268 14.2001 116.268 14.2001H113.274C113.013 14.1875 112.922 13.6994 112.922 13.6994V13.701ZM122.75 14.9251C122.75 14.9251 122.475 16.255 121.811 17.1094C121.811 17.1094 120.652 18.7805 120.184 19.2812C120.184 19.2812 118.751 20.6632 116.369 20.5842C116.369 20.5842 113.975 20.4136 113.336 17.9386C113.336 17.9386 112.867 16.3639 113.687 16.3323C113.687 16.3323 115.64 16.2534 116.082 16.266C116.082 16.266 116.641 16.2786 116.433 16.7667C116.433 16.7667 116.265 17.3321 116.29 17.9386C116.29 17.9386 116.159 20.0314 116.979 19.9793C116.979 19.9793 117.981 20.2162 118.086 18.7821C118.086 18.7821 118.152 17.9797 118.359 16.176C118.359 16.176 118.308 15.5568 118.645 15.5963C118.645 15.5963 119.687 15.5047 120.337 15.53C120.337 15.53 121.169 15.53 121.287 14.7671C121.287 14.7671 121.313 14.4117 121.391 14.1353C121.391 14.1353 121.56 13.543 120.871 13.5699C120.871 13.5699 119.687 13.3598 118.892 13.622C118.892 13.622 118.645 13.5036 118.67 12.8323C118.67 12.8323 118.8 11.147 118.722 10.8848C118.722 10.8848 118.617 10.5421 119.112 10.5958C119.112 10.5958 121.287 10.8327 122.185 11.2276C122.185 11.2276 122.771 11.5435 122.744 12.0568C122.744 12.0568 122.836 13.3993 122.744 14.9266L122.75 14.9251Z" fill="white"/>
<path d="M98.9297 0.5C98.9297 0.5 97.2505 0.5 97.1334 2.11893C97.1334 2.11893 97.1724 3.00658 97.1334 3.75839C97.1334 3.75839 97.1927 4.64604 96.7429 4.74555C96.7429 4.74555 95.1996 4.98246 94.0093 5.67426C94.0093 5.67426 93.3845 5.87169 92.8769 5.43734C92.8769 5.43734 92.2521 4.80556 91.393 5.39786C91.393 5.39786 90.437 5.91117 89.9872 6.9773C89.9872 6.9773 89.656 7.80651 90.084 8.25981C90.084 8.25981 90.4355 8.53621 90.6495 8.67362C90.6495 8.67362 91.1368 8.92949 90.7869 9.50283C90.7869 9.50283 90.4558 9.83767 89.9872 10.1946C89.9872 10.1946 89.3624 10.5895 89.4217 10.9843C89.4217 10.9843 89.5186 11.5561 91.1587 11.5972C91.1587 11.5972 93.5204 12.1895 95.5917 11.5972C95.5917 11.5972 96.8225 11.2813 97.6613 11.2023C97.6613 11.2023 98.1487 11.1423 97.4661 11.7741C97.4661 11.7741 96.3727 13.0976 96.0993 14.0643C96.0993 14.0643 95.7479 14.8729 96.3149 15.1304C96.3149 15.1304 96.8803 15.4652 97.8581 15.6437C97.8581 15.6437 99.5576 15.9406 99.6935 17.3811C99.6935 17.3811 100.065 20.0267 98.4626 21.4687C98.4626 21.4687 96.9787 22.8302 96.0228 22.9881C96.0228 22.9881 95.0075 23.2156 93.8063 23.0181C93.8063 23.0181 91.8632 22.6722 91.5117 23.0939C91.5117 23.0939 91.0337 24.0053 92.274 24.3512C92.274 24.3512 93.5236 24.686 96.2383 24.3512C96.2383 24.3512 98.1315 24.0953 99.089 22.5159C99.089 22.5159 100.339 20.4231 100.357 19.6539C100.357 19.6539 100.376 19.0711 100.767 19.556C100.767 19.556 102.133 21.4324 103.227 22.7749C103.227 22.7749 104.008 23.6831 104.554 23.7226C104.554 23.7226 105.882 23.9784 108.459 22.7354C108.459 22.7354 109.526 22.3011 108.494 22.0673C108.494 22.0673 107.15 21.5635 106.351 20.859C106.351 20.859 103.636 18.3919 102.602 17.3448C102.602 17.3448 101.958 16.762 101.548 16.713C101.548 16.713 100.679 16.5645 100.357 16.664C100.357 16.664 100.026 16.6735 100.27 16.3181C100.27 16.3181 100.465 15.8838 100.348 15.2725C100.348 15.2725 100.026 14.5018 98.8937 14.2159C98.8937 14.2159 98.4251 14.0579 98.0346 13.791C98.0346 13.791 97.2536 13.4056 97.9269 13.2572C97.9269 13.2572 99.3124 12.6854 99.9871 11.6588C99.9871 11.6588 101.255 10.1393 101.149 9.06217C101.149 9.06217 101.14 8.57886 100.437 8.15399C100.437 8.15399 99.7528 7.74017 98.2314 7.82862C98.2314 7.82862 96.0962 7.92655 94.8731 8.2835C94.8731 8.2835 94.0531 8.41459 93.3627 8.50778C93.3627 8.50778 92.477 8.62624 92.438 8.27086C92.438 8.27086 92.3083 7.7844 93.3361 7.3232C93.3361 7.3232 95.6526 6.23022 99.4795 5.07249C99.4795 5.07249 100.164 4.78029 102.825 4.83557C102.825 4.83557 103.789 4.84821 104.634 4.91455C104.634 4.91455 106.157 5.04564 106.404 6.1781C106.404 6.1781 106.573 6.73091 106.013 7.15262C106.013 7.15262 105.454 7.6533 105.623 7.99446C105.623 7.99446 105.779 8.38932 106.587 7.57275C106.587 7.57275 106.743 7.36268 107.355 6.82251C107.355 6.82251 108.031 6.29656 107.55 5.36153C107.55 5.36153 106.379 3.22928 104.634 3.26877C104.634 3.26877 102.447 3.11082 100.963 3.3351C100.963 3.3351 100.039 3.63836 100.209 3.11082C100.209 3.11082 100.404 2.84705 100.378 2.17579C100.378 2.17579 100.29 1.26445 99.8965 0.92487C99.8965 0.92487 99.4607 0.501579 98.9328 0.503159L98.9297 0.5Z" stroke="white" stroke-linecap="round" stroke-linejoin="round"/>
<path d="M94.4123 15.5568C94.4123 15.5568 94.178 15.8854 92.4598 16.465C92.4598 16.465 90.2074 17.3606 88.9844 17.9134C88.9844 17.9134 88.4892 18.0839 87.7863 18.0982C87.7863 18.0982 86.5367 17.9923 87.1881 18.651C87.1881 18.651 87.9816 19.3349 88.308 19.6113C88.308 19.6113 89.0375 20.2557 90.2215 19.466C90.2215 19.466 90.8463 19.1627 92.9159 18.3872C92.9159 18.3872 94.3342 17.8344 94.4904 17.3337C94.4904 17.3337 94.7903 16.8867 94.8809 15.8727C94.8809 15.8727 94.7903 15.1746 94.4123 15.5568Z" stroke="white" stroke-linecap="round" stroke-linejoin="round"/>
<path d="M95.8447 18.125C95.8447 18.125 96.6648 17.6591 96.9897 17.2958C96.9897 17.2958 97.263 16.8741 97.4458 17.1647C97.4458 17.1647 97.9659 18.0066 97.1334 18.5862C97.1334 18.5862 96.7819 18.9542 96.5742 19.3096C96.5742 19.3096 95.3902 20.9806 93.4501 21.5872C93.4501 21.5872 92.1099 21.982 90.3527 21.7577C90.3527 21.7577 88.5048 21.336 89.2718 21.2318C89.2718 21.2318 90.0793 21.0344 92.2271 20.2573C92.2271 20.2573 93.4064 19.695 94.8825 18.7568C94.8825 18.7568 95.3683 18.3746 95.8463 18.125H95.8447Z" stroke="white" stroke-linecap="round" stroke-linejoin="round"/>
<path d="M103.642 14.0169C103.642 14.0169 102.315 14.1353 102.38 15.5837C102.38 15.5837 102.446 16.544 103.642 16.7556C103.642 16.7556 105.021 17.062 105.153 15.44C105.153 15.44 105.192 13.9916 103.642 14.0185V14.0169Z" stroke="white" stroke-linecap="round" stroke-linejoin="round"/>
<path d="M123.909 12.3458C123.909 12.3458 123.805 10.3715 121.722 9.45071C121.722 9.45071 118.806 8.1603 114.928 8.05606C114.928 8.05606 112.272 7.95024 111.804 8.79366C111.804 8.79366 110.762 9.89927 110.371 11.7678C110.371 11.7678 109.668 15.2425 110.11 17.032C110.11 17.032 110.579 18.9005 111.438 20.401C111.438 20.401 112.532 22.2442 113.755 22.1652C113.755 22.1652 114.015 22.0073 114.743 22.35C114.743 22.35 117.817 23.0087 121.694 20.3757C121.694 20.3757 123.62 18.8753 123.908 15.9533C123.908 15.9533 124.115 13.9 123.908 12.3474L123.909 12.3458ZM112.922 13.701C112.7 12.9776 112.661 11.2134 112.661 11.2134C112.649 10.4758 113.586 10.0951 113.586 10.0951C114.809 9.38437 116.424 10.0951 116.424 10.0951C116.763 10.1346 116.607 10.5816 116.607 10.5816C116.502 11.0033 116.541 11.6604 116.541 11.6604C116.535 12.3316 116.268 14.2001 116.268 14.2001H113.274C113.013 14.1875 112.922 13.6994 112.922 13.6994V13.701ZM122.75 14.9251C122.75 14.9251 122.475 16.255 121.811 17.1094C121.811 17.1094 120.652 18.7805 120.184 19.2812C120.184 19.2812 118.751 20.6632 116.369 20.5842C116.369 20.5842 113.975 20.4136 113.336 17.9386C113.336 17.9386 112.867 16.3639 113.687 16.3323C113.687 16.3323 115.64 16.2534 116.082 16.266C116.082 16.266 116.641 16.2786 116.433 16.7667C116.433 16.7667 116.265 17.3321 116.29 17.9386C116.29 17.9386 116.159 20.0314 116.979 19.9793C116.979 19.9793 117.981 20.2162 118.086 18.7821C118.086 18.7821 118.152 17.9797 118.359 16.176C118.359 16.176 118.308 15.5568 118.645 15.5963C118.645 15.5963 119.687 15.5047 120.337 15.53C120.337 15.53 121.169 15.53 121.287 14.7671C121.287 14.7671 121.313 14.4117 121.391 14.1353C121.391 14.1353 121.56 13.543 120.871 13.5699C120.871 13.5699 119.687 13.3598 118.892 13.622C118.892 13.622 118.645 13.5036 118.67 12.8323C118.67 12.8323 118.8 11.147 118.722 10.8848C118.722 10.8848 118.617 10.5421 119.112 10.5958C119.112 10.5958 121.287 10.8327 122.185 11.2276C122.185 11.2276 122.771 11.5435 122.744 12.0568C122.744 12.0568 122.836 13.3993 122.744 14.9266L122.75 14.9251Z" stroke="white" stroke-linecap="round" stroke-linejoin="round"/>
</svg>
