<svg width="414" height="46" viewBox="0 0 414 46" fill="none" xmlns="http://www.w3.org/2000/svg">
<path d="M11.352 3.96561C9.78413 4.1143 6.25182 3.98848 6.25182 3.98848C0.869025 3.84666 0.467937 4.41854 0.467937 4.41854C-0.584921 5.30611 0.467937 7.67831 0.467937 7.67831C1.35215 9.82403 1.83528 11.224 1.83528 11.224C2.12015 12.1116 2.31841 13.1112 2.31841 13.1112C2.66025 14.4563 5.11008 13.5848 5.11008 13.5848C5.50889 13.4018 6.39083 13.2256 6.39083 13.2256C7.3024 13.1387 8.35525 13.5116 8.35525 13.5116C9.97784 13.8547 10.4929 12.8825 10.4929 12.8825C10.6638 12.3381 11.2335 11.423 11.2335 11.423C12.0038 10.2518 13.084 7.96425 13.084 7.96425C14.8798 3.53097 11.3475 3.96561 11.3475 3.96561H11.352ZM7.56219 10.7368C7.56219 10.7368 6.56403 10.6933 6.28144 10.7436C6.28144 10.7436 5.16933 10.5652 5.16933 9.19267C5.16933 9.19267 4.77052 7.38779 6.65063 7.39008H7.961C7.961 7.39008 9.27138 7.56164 9.2144 8.73516C9.2144 8.73516 9.301 10.8809 7.56219 10.7368Z" fill="white"/>
<path d="M15.3675 9.46946C15.3675 9.46946 16.2608 9.56325 16.0511 9.06685C16.0511 9.06685 15.7845 7.65772 15.1008 6.87538C15.1008 6.87538 13.2595 3.82607 15.2535 3.08261C15.2535 3.08261 16.5001 2.61595 16.8943 4.67475C16.8989 4.69763 16.9035 4.71821 16.9057 4.74109C17.2863 6.87538 17.3843 7.294 17.2521 9.02796C17.2521 9.02796 17.1382 9.29561 17.7467 9.3345H18.501C18.501 9.3345 19.3123 9.39168 18.8861 7.24825C18.8861 7.24825 17.8378 0.870548 19.9253 0.509115C19.9253 0.509115 21.5593 0.241471 22.186 2.6068C22.186 2.6068 22.3569 4.34077 22.186 5.73389C22.186 5.73389 22.1677 6.38126 22.8514 6.26689C22.8514 6.26689 23.3824 6.43617 23.9339 4.98814C23.9339 4.98814 25.4334 2.0738 26.9147 3.19699C26.9147 3.19699 28.1294 4.60841 26.9147 6.228C26.9147 6.228 24.9594 8.13582 24.6176 8.90672C24.6176 8.90672 23.9339 9.98416 25.2443 9.75541C25.2443 9.75541 29.3463 9.01195 29.556 10.2129C29.556 10.2129 29.8978 11.224 26.7073 11.1234C26.7073 11.1234 25.5246 11.0364 25.226 11.3956C25.226 11.3956 24.9549 12.0384 25.8915 12.4067C25.8915 12.4067 29.3851 13.6259 32.9379 14.7697C32.9379 14.7697 35.4834 15.3988 37.1402 16.2726C37.1402 16.2726 40.6611 18.2971 39.1023 21.4036C39.1023 21.4036 35.9757 24.6817 32.2907 21.5935C32.2907 21.5935 26.2903 16.9795 24.4672 15.2638C24.4672 15.2638 23.8086 14.5501 23.3049 14.3397C23.3049 14.3397 22.644 14.1978 23.0246 16.769C23.0246 16.769 24.2598 22.6412 22.0743 23.3069C22.0743 23.3069 19.0547 24.4506 18.2389 21.9732C18.2389 21.9732 17.8013 20.3536 18.7334 15.2066C18.7334 15.2066 18.7334 14.2527 17.6692 14.9207C17.6692 14.9207 16.7963 15.4926 15.5429 16.4831C15.5429 16.4831 13.4919 17.7024 12.1246 16.2155C12.1246 16.2155 11.213 14.82 13.0361 13.8593C13.0361 13.8593 15.8096 12.3266 16.4158 11.6403C16.4158 11.6403 16.9468 10.5675 15.2376 10.7413C15.2376 10.7413 12.806 11.1828 12.9199 10.0391C12.9199 10.0391 12.806 9.08515 15.3697 9.46717L15.3675 9.46946Z" fill="white"/>
<path d="M48.512 6.04957C47.0375 6.18911 43.7126 6.07016 43.7126 6.07016C38.6466 5.93519 38.2705 6.47277 38.2705 6.47277C37.2792 7.30772 38.2705 9.54038 38.2705 9.54038C39.1023 11.558 39.5581 12.8779 39.5581 12.8779C39.827 13.7129 40.0139 14.6531 40.0139 14.6531C40.3352 15.9181 42.6415 15.0991 42.6415 15.0991C43.0175 14.9253 43.847 14.7606 43.847 14.7606C44.7039 14.6805 45.6975 15.0305 45.6975 15.0305C47.2244 15.353 47.7075 14.438 47.7075 14.438C47.8693 13.9279 48.4049 13.0655 48.4049 13.0655C49.1295 11.9629 50.1482 9.81031 50.1482 9.81031C51.8369 5.6401 48.512 6.04728 48.512 6.04728V6.04957ZM44.9477 12.4204C44.9477 12.4204 44.0088 12.3792 43.7422 12.4273C43.7422 12.4273 42.6962 12.2603 42.6962 10.9678C42.6962 10.9678 42.3202 9.27044 44.0909 9.27273H45.3238C45.3238 9.27273 46.5567 9.43515 46.5042 10.5377C46.5042 10.5377 46.584 12.5554 44.95 12.4204H44.9477Z" fill="white"/>
<path d="M52.2927 11.2286C52.2927 11.2286 53.1336 11.3155 52.9353 10.8511C52.9353 10.8511 52.6847 9.52436 52.042 8.79006C52.042 8.79006 50.3077 5.91918 52.1856 5.21919C52.1856 5.21919 53.3569 4.77998 53.7284 6.71753C53.733 6.73812 53.7352 6.75871 53.7398 6.7793C54.0976 8.78777 54.191 9.18123 54.0657 10.8145C54.0657 10.8145 53.9586 11.0662 54.5306 11.1028H55.2416C55.2416 11.1028 56.005 11.1577 55.6039 9.13777C55.6039 9.13777 54.6172 3.13751 56.5816 2.79667C56.5816 2.79667 58.1176 2.54504 58.7078 4.77083C58.7078 4.77083 58.8696 6.40414 58.7078 7.71262C58.7078 7.71262 58.6896 8.3234 59.3345 8.21588C59.3345 8.21588 59.8359 8.37601 60.3532 7.01263C60.3532 7.01263 61.7661 4.26985 63.1585 5.3267C63.1585 5.3267 64.3026 6.65348 63.1585 8.17928C63.1585 8.17928 61.3172 9.97501 60.9958 10.7002C60.9958 10.7002 60.3532 11.7136 61.5861 11.4985C61.5861 11.4985 65.4466 10.7985 65.6426 11.9286C65.6426 11.9286 65.9639 12.8802 62.9625 12.7841C62.9625 12.7841 61.8504 12.7041 61.5679 13.0403C61.5679 13.0403 61.3126 13.6442 62.1946 13.992C62.1946 13.992 65.483 15.1403 68.8239 16.2155C68.8239 16.2155 71.219 16.8079 72.7778 17.6292C72.7778 17.6292 76.0914 19.5347 74.626 22.4582C74.626 22.4582 71.6839 25.5441 68.2177 22.6366C68.2177 22.6366 62.5706 18.2948 60.8546 16.6798C60.8546 16.6798 60.2347 16.0096 59.7607 15.8106C59.7607 15.8106 59.1385 15.6756 59.4963 18.0981C59.4963 18.0981 60.6586 23.6226 58.603 24.2516C58.603 24.2516 55.7612 25.3291 54.9932 22.9958C54.9932 22.9958 54.5807 21.47 55.4581 16.6272C55.4581 16.6272 55.4581 15.7305 54.4576 16.3573C54.4576 16.3573 53.635 16.8949 52.4568 17.8282C52.4568 17.8282 50.5265 18.9765 49.2389 17.5766C49.2389 17.5766 48.3821 16.2635 50.0958 15.3599C50.0958 15.3599 52.7052 13.9188 53.2772 13.2714C53.2772 13.2714 53.7785 12.2626 52.1696 12.425C52.1696 12.425 49.8816 12.839 49.9887 11.7639C49.9887 11.7639 49.8816 10.8672 52.295 11.2263L52.2927 11.2286Z" fill="white"/>
<path d="M98.9297 0.5C98.9297 0.5 97.2505 0.5 97.1334 2.11893C97.1334 2.11893 97.1724 3.00658 97.1334 3.75839C97.1334 3.75839 97.1927 4.64604 96.7429 4.74555C96.7429 4.74555 95.1996 4.98246 94.0093 5.67426C94.0093 5.67426 93.3845 5.87169 92.8769 5.43734C92.8769 5.43734 92.2521 4.80556 91.393 5.39786C91.393 5.39786 90.437 5.91117 89.9872 6.9773C89.9872 6.9773 89.656 7.80651 90.084 8.25981C90.084 8.25981 90.4355 8.53621 90.6495 8.67362C90.6495 8.67362 91.1368 8.92949 90.7869 9.50283C90.7869 9.50283 90.4558 9.83767 89.9872 10.1946C89.9872 10.1946 89.3624 10.5895 89.4217 10.9843C89.4217 10.9843 89.5186 11.5561 91.1587 11.5972C91.1587 11.5972 93.5204 12.1895 95.5917 11.5972C95.5917 11.5972 96.8225 11.2813 97.6613 11.2023C97.6613 11.2023 98.1487 11.1423 97.4661 11.7741C97.4661 11.7741 96.3727 13.0976 96.0993 14.0643C96.0993 14.0643 95.7479 14.8729 96.3149 15.1304C96.3149 15.1304 96.8803 15.4652 97.8581 15.6437C97.8581 15.6437 99.5576 15.9406 99.6935 17.3811C99.6935 17.3811 100.065 20.0267 98.4626 21.4687C98.4626 21.4687 96.9787 22.8302 96.0228 22.9881C96.0228 22.9881 95.0075 23.2156 93.8063 23.0181C93.8063 23.0181 91.8632 22.6722 91.5117 23.0939C91.5117 23.0939 91.0337 24.0053 92.274 24.3512C92.274 24.3512 93.5236 24.686 96.2383 24.3512C96.2383 24.3512 98.1315 24.0953 99.089 22.5159C99.089 22.5159 100.339 20.4231 100.357 19.6539C100.357 19.6539 100.376 19.0711 100.767 19.556C100.767 19.556 102.133 21.4324 103.227 22.7749C103.227 22.7749 104.008 23.6831 104.554 23.7226C104.554 23.7226 105.882 23.9784 108.459 22.7354C108.459 22.7354 109.526 22.3011 108.494 22.0673C108.494 22.0673 107.15 21.5635 106.351 20.859C106.351 20.859 103.636 18.3919 102.602 17.3448C102.602 17.3448 101.958 16.762 101.548 16.713C101.548 16.713 100.679 16.5645 100.357 16.664C100.357 16.664 100.026 16.6735 100.27 16.3181C100.27 16.3181 100.465 15.8838 100.348 15.2725C100.348 15.2725 100.026 14.5018 98.8937 14.2159C98.8937 14.2159 98.4251 14.0579 98.0346 13.791C98.0346 13.791 97.2536 13.4056 97.9269 13.2572C97.9269 13.2572 99.3124 12.6854 99.9871 11.6588C99.9871 11.6588 101.255 10.1393 101.149 9.06217C101.149 9.06217 101.14 8.57886 100.437 8.15399C100.437 8.15399 99.7528 7.74017 98.2314 7.82862C98.2314 7.82862 96.0962 7.92655 94.8731 8.2835C94.8731 8.2835 94.0531 8.41459 93.3627 8.50778C93.3627 8.50778 92.477 8.62624 92.438 8.27086C92.438 8.27086 92.3083 7.7844 93.3361 7.3232C93.3361 7.3232 95.6526 6.23022 99.4795 5.07249C99.4795 5.07249 100.164 4.78029 102.825 4.83557C102.825 4.83557 103.789 4.84821 104.634 4.91455C104.634 4.91455 106.157 5.04564 106.404 6.1781C106.404 6.1781 106.573 6.73091 106.013 7.15262C106.013 7.15262 105.454 7.6533 105.623 7.99446C105.623 7.99446 105.779 8.38932 106.587 7.57275C106.587 7.57275 106.743 7.36268 107.355 6.82251C107.355 6.82251 108.031 6.29656 107.55 5.36153C107.55 5.36153 106.379 3.22928 104.634 3.26877C104.634 3.26877 102.447 3.11082 100.963 3.3351C100.963 3.3351 100.039 3.63836 100.209 3.11082C100.209 3.11082 100.404 2.84705 100.378 2.17579C100.378 2.17579 100.29 1.26445 99.8965 0.92487C99.8965 0.92487 99.4607 0.501579 98.9328 0.503159L98.9297 0.5Z" fill="white"/>
<path d="M94.4123 15.5568C94.4123 15.5568 94.178 15.8854 92.4598 16.465C92.4598 16.465 90.2074 17.3606 88.9844 17.9134C88.9844 17.9134 88.4892 18.0839 87.7863 18.0982C87.7863 18.0982 86.5367 17.9923 87.1881 18.651C87.1881 18.651 87.9816 19.3349 88.308 19.6113C88.308 19.6113 89.0375 20.2557 90.2215 19.466C90.2215 19.466 90.8463 19.1627 92.9159 18.3872C92.9159 18.3872 94.3342 17.8344 94.4904 17.3337C94.4904 17.3337 94.7903 16.8867 94.8809 15.8727C94.8809 15.8727 94.7903 15.1746 94.4123 15.5568Z" fill="white"/>
<path d="M95.8447 18.125C95.8447 18.125 96.6648 17.6591 96.9897 17.2958C96.9897 17.2958 97.263 16.8741 97.4458 17.1647C97.4458 17.1647 97.9659 18.0066 97.1334 18.5862C97.1334 18.5862 96.7819 18.9542 96.5742 19.3096C96.5742 19.3096 95.3902 20.9806 93.4501 21.5872C93.4501 21.5872 92.1099 21.982 90.3527 21.7577C90.3527 21.7577 88.5048 21.336 89.2718 21.2318C89.2718 21.2318 90.0793 21.0344 92.2271 20.2573C92.2271 20.2573 93.4064 19.695 94.8825 18.7568C94.8825 18.7568 95.3683 18.3746 95.8463 18.125H95.8447Z" fill="white"/>
<path d="M103.642 14.0169C103.642 14.0169 102.315 14.1353 102.38 15.5837C102.38 15.5837 102.446 16.544 103.642 16.7556C103.642 16.7556 105.021 17.062 105.153 15.44C105.153 15.44 105.192 13.9916 103.642 14.0185V14.0169Z" fill="white"/>
<path d="M123.909 12.3458C123.909 12.3458 123.805 10.3715 121.722 9.45071C121.722 9.45071 118.806 8.1603 114.928 8.05606C114.928 8.05606 112.272 7.95024 111.804 8.79366C111.804 8.79366 110.762 9.89927 110.371 11.7678C110.371 11.7678 109.668 15.2425 110.11 17.032C110.11 17.032 110.579 18.9005 111.438 20.401C111.438 20.401 112.532 22.2442 113.755 22.1652C113.755 22.1652 114.015 22.0073 114.743 22.35C114.743 22.35 117.817 23.0087 121.694 20.3757C121.694 20.3757 123.62 18.8753 123.908 15.9533C123.908 15.9533 124.115 13.9 123.908 12.3474L123.909 12.3458ZM112.922 13.701C112.7 12.9776 112.661 11.2134 112.661 11.2134C112.649 10.4758 113.586 10.0951 113.586 10.0951C114.809 9.38437 116.424 10.0951 116.424 10.0951C116.763 10.1346 116.607 10.5816 116.607 10.5816C116.502 11.0033 116.541 11.6604 116.541 11.6604C116.535 12.3316 116.268 14.2001 116.268 14.2001H113.274C113.013 14.1875 112.922 13.6994 112.922 13.6994V13.701ZM122.75 14.9251C122.75 14.9251 122.475 16.255 121.811 17.1094C121.811 17.1094 120.652 18.7805 120.184 19.2812C120.184 19.2812 118.751 20.6632 116.369 20.5842C116.369 20.5842 113.975 20.4136 113.336 17.9386C113.336 17.9386 112.867 16.3639 113.687 16.3323C113.687 16.3323 115.64 16.2534 116.082 16.266C116.082 16.266 116.641 16.2786 116.433 16.7667C116.433 16.7667 116.265 17.3321 116.29 17.9386C116.29 17.9386 116.159 20.0314 116.979 19.9793C116.979 19.9793 117.981 20.2162 118.086 18.7821C118.086 18.7821 118.152 17.9797 118.359 16.176C118.359 16.176 118.308 15.5568 118.645 15.5963C118.645 15.5963 119.687 15.5047 120.337 15.53C120.337 15.53 121.169 15.53 121.287 14.7671C121.287 14.7671 121.313 14.4117 121.391 14.1353C121.391 14.1353 121.56 13.543 120.871 13.5699C120.871 13.5699 119.687 13.3598 118.892 13.622C118.892 13.622 118.645 13.5036 118.67 12.8323C118.67 12.8323 118.8 11.147 118.722 10.8848C118.722 10.8848 118.617 10.5421 119.112 10.5958C119.112 10.5958 121.287 10.8327 122.185 11.2276C122.185 11.2276 122.771 11.5435 122.744 12.0568C122.744 12.0568 122.836 13.3993 122.744 14.9266L122.75 14.9251Z" fill="white"/>
<path d="M98.9297 0.5C98.9297 0.5 97.2505 0.5 97.1334 2.11893C97.1334 2.11893 97.1724 3.00658 97.1334 3.75839C97.1334 3.75839 97.1927 4.64604 96.7429 4.74555C96.7429 4.74555 95.1996 4.98246 94.0093 5.67426C94.0093 5.67426 93.3845 5.87169 92.8769 5.43734C92.8769 5.43734 92.2521 4.80556 91.393 5.39786C91.393 5.39786 90.437 5.91117 89.9872 6.9773C89.9872 6.9773 89.656 7.80651 90.084 8.25981C90.084 8.25981 90.4355 8.53621 90.6495 8.67362C90.6495 8.67362 91.1368 8.92949 90.7869 9.50283C90.7869 9.50283 90.4558 9.83767 89.9872 10.1946C89.9872 10.1946 89.3624 10.5895 89.4217 10.9843C89.4217 10.9843 89.5186 11.5561 91.1587 11.5972C91.1587 11.5972 93.5204 12.1895 95.5917 11.5972C95.5917 11.5972 96.8225 11.2813 97.6613 11.2023C97.6613 11.2023 98.1487 11.1423 97.4661 11.7741C97.4661 11.7741 96.3727 13.0976 96.0993 14.0643C96.0993 14.0643 95.7479 14.8729 96.3149 15.1304C96.3149 15.1304 96.8803 15.4652 97.8581 15.6437C97.8581 15.6437 99.5576 15.9406 99.6935 17.3811C99.6935 17.3811 100.065 20.0267 98.4626 21.4687C98.4626 21.4687 96.9787 22.8302 96.0228 22.9881C96.0228 22.9881 95.0075 23.2156 93.8063 23.0181C93.8063 23.0181 91.8632 22.6722 91.5117 23.0939C91.5117 23.0939 91.0337 24.0053 92.274 24.3512C92.274 24.3512 93.5236 24.686 96.2383 24.3512C96.2383 24.3512 98.1315 24.0953 99.089 22.5159C99.089 22.5159 100.339 20.4231 100.357 19.6539C100.357 19.6539 100.376 19.0711 100.767 19.556C100.767 19.556 102.133 21.4324 103.227 22.7749C103.227 22.7749 104.008 23.6831 104.554 23.7226C104.554 23.7226 105.882 23.9784 108.459 22.7354C108.459 22.7354 109.526 22.3011 108.494 22.0673C108.494 22.0673 107.15 21.5635 106.351 20.859C106.351 20.859 103.636 18.3919 102.602 17.3448C102.602 17.3448 101.958 16.762 101.548 16.713C101.548 16.713 100.679 16.5645 100.357 16.664C100.357 16.664 100.026 16.6735 100.27 16.3181C100.27 16.3181 100.465 15.8838 100.348 15.2725C100.348 15.2725 100.026 14.5018 98.8937 14.2159C98.8937 14.2159 98.4251 14.0579 98.0346 13.791C98.0346 13.791 97.2536 13.4056 97.9269 13.2572C97.9269 13.2572 99.3124 12.6854 99.9871 11.6588C99.9871 11.6588 101.255 10.1393 101.149 9.06217C101.149 9.06217 101.14 8.57886 100.437 8.15399C100.437 8.15399 99.7528 7.74017 98.2314 7.82862C98.2314 7.82862 96.0962 7.92655 94.8731 8.2835C94.8731 8.2835 94.0531 8.41459 93.3627 8.50778C93.3627 8.50778 92.477 8.62624 92.438 8.27086C92.438 8.27086 92.3083 7.7844 93.3361 7.3232C93.3361 7.3232 95.6526 6.23022 99.4795 5.07249C99.4795 5.07249 100.164 4.78029 102.825 4.83557C102.825 4.83557 103.789 4.84821 104.634 4.91455C104.634 4.91455 106.157 5.04564 106.404 6.1781C106.404 6.1781 106.573 6.73091 106.013 7.15262C106.013 7.15262 105.454 7.6533 105.623 7.99446C105.623 7.99446 105.779 8.38932 106.587 7.57275C106.587 7.57275 106.743 7.36268 107.355 6.82251C107.355 6.82251 108.031 6.29656 107.55 5.36153C107.55 5.36153 106.379 3.22928 104.634 3.26877C104.634 3.26877 102.447 3.11082 100.963 3.3351C100.963 3.3351 100.039 3.63836 100.209 3.11082C100.209 3.11082 100.404 2.84705 100.378 2.17579C100.378 2.17579 100.29 1.26445 99.8965 0.92487C99.8965 0.92487 99.4607 0.501579 98.9328 0.503159L98.9297 0.5Z" stroke="white" stroke-linecap="round" stroke-linejoin="round"/>
<path d="M94.4123 15.5568C94.4123 15.5568 94.178 15.8854 92.4598 16.465C92.4598 16.465 90.2074 17.3606 88.9844 17.9134C88.9844 17.9134 88.4892 18.0839 87.7863 18.0982C87.7863 18.0982 86.5367 17.9923 87.1881 18.651C87.1881 18.651 87.9816 19.3349 88.308 19.6113C88.308 19.6113 89.0375 20.2557 90.2215 19.466C90.2215 19.466 90.8463 19.1627 92.9159 18.3872C92.9159 18.3872 94.3342 17.8344 94.4904 17.3337C94.4904 17.3337 94.7903 16.8867 94.8809 15.8727C94.8809 15.8727 94.7903 15.1746 94.4123 15.5568Z" stroke="white" stroke-linecap="round" stroke-linejoin="round"/>
<path d="M95.8447 18.125C95.8447 18.125 96.6648 17.6591 96.9897 17.2958C96.9897 17.2958 97.263 16.8741 97.4458 17.1647C97.4458 17.1647 97.9659 18.0066 97.1334 18.5862C97.1334 18.5862 96.7819 18.9542 96.5742 19.3096C96.5742 19.3096 95.3902 20.9806 93.4501 21.5872C93.4501 21.5872 92.1099 21.982 90.3527 21.7577C90.3527 21.7577 88.5048 21.336 89.2718 21.2318C89.2718 21.2318 90.0793 21.0344 92.2271 20.2573C92.2271 20.2573 93.4064 19.695 94.8825 18.7568C94.8825 18.7568 95.3683 18.3746 95.8463 18.125H95.8447Z" stroke="white" stroke-linecap="round" stroke-linejoin="round"/>
<path d="M103.642 14.0169C103.642 14.0169 102.315 14.1353 102.38 15.5837C102.38 15.5837 102.446 16.544 103.642 16.7556C103.642 16.7556 105.021 17.062 105.153 15.44C105.153 15.44 105.192 13.9916 103.642 14.0185V14.0169Z" stroke="white" stroke-linecap="round" stroke-linejoin="round"/>
<path d="M123.909 12.3458C123.909 12.3458 123.805 10.3715 121.722 9.45071C121.722 9.45071 118.806 8.1603 114.928 8.05606C114.928 8.05606 112.272 7.95024 111.804 8.79366C111.804 8.79366 110.762 9.89927 110.371 11.7678C110.371 11.7678 109.668 15.2425 110.11 17.032C110.11 17.032 110.579 18.9005 111.438 20.401C111.438 20.401 112.532 22.2442 113.755 22.1652C113.755 22.1652 114.015 22.0073 114.743 22.35C114.743 22.35 117.817 23.0087 121.694 20.3757C121.694 20.3757 123.62 18.8753 123.908 15.9533C123.908 15.9533 124.115 13.9 123.908 12.3474L123.909 12.3458ZM112.922 13.701C112.7 12.9776 112.661 11.2134 112.661 11.2134C112.649 10.4758 113.586 10.0951 113.586 10.0951C114.809 9.38437 116.424 10.0951 116.424 10.0951C116.763 10.1346 116.607 10.5816 116.607 10.5816C116.502 11.0033 116.541 11.6604 116.541 11.6604C116.535 12.3316 116.268 14.2001 116.268 14.2001H113.274C113.013 14.1875 112.922 13.6994 112.922 13.6994V13.701ZM122.75 14.9251C122.75 14.9251 122.475 16.255 121.811 17.1094C121.811 17.1094 120.652 18.7805 120.184 19.2812C120.184 19.2812 118.751 20.6632 116.369 20.5842C116.369 20.5842 113.975 20.4136 113.336 17.9386C113.336 17.9386 112.867 16.3639 113.687 16.3323C113.687 16.3323 115.64 16.2534 116.082 16.266C116.082 16.266 116.641 16.2786 116.433 16.7667C116.433 16.7667 116.265 17.3321 116.29 17.9386C116.29 17.9386 116.159 20.0314 116.979 19.9793C116.979 19.9793 117.981 20.2162 118.086 18.7821C118.086 18.7821 118.152 17.9797 118.359 16.176C118.359 16.176 118.308 15.5568 118.645 15.5963C118.645 15.5963 119.687 15.5047 120.337 15.53C120.337 15.53 121.169 15.53 121.287 14.7671C121.287 14.7671 121.313 14.4117 121.391 14.1353C121.391 14.1353 121.56 13.543 120.871 13.5699C120.871 13.5699 119.687 13.3598 118.892 13.622C118.892 13.622 118.645 13.5036 118.67 12.8323C118.67 12.8323 118.8 11.147 118.722 10.8848C118.722 10.8848 118.617 10.5421 119.112 10.5958C119.112 10.5958 121.287 10.8327 122.185 11.2276C122.185 11.2276 122.771 11.5435 122.744 12.0568C122.744 12.0568 122.836 13.3993 122.744 14.9266L122.75 14.9251Z" stroke="white" stroke-linecap="round" stroke-linejoin="round"/>
<path d="M133.632 3.86H140.208V1.484L142.128 1.676C142.08 2.012 141.864 2.252 141.264 2.324V3.86H146.592V1.484L148.512 1.676C148.464 2.012 148.248 2.252 147.648 2.324V3.86H151.536L152.544 2.636C152.544 2.636 153.696 3.524 154.392 4.196C154.344 4.46 154.104 4.58 153.768 4.58H147.648V6.092C147.648 6.188 147.312 6.428 146.784 6.452H146.592V4.58H141.264V6.188C141.264 6.332 140.784 6.5 140.376 6.5H140.208V4.58H133.776L133.632 3.86ZM138.048 9.38H147.504L148.416 8.348C148.416 8.348 149.424 9.092 150.096 9.692C150.024 9.956 149.808 10.076 149.472 10.076H138.24L138.048 9.38ZM135.864 5.852L136.296 5.828C136.416 6.212 136.488 6.548 136.536 6.884H151.728L152.52 6.068L154.008 7.532C153.84 7.7 153.552 7.724 153.12 7.772C152.688 8.42 151.848 9.38 151.2 9.932L150.84 9.74C151.128 9.188 151.488 8.324 151.752 7.604H136.584C136.56 8.924 136.008 9.812 135.456 10.244C134.952 10.604 134.256 10.724 134.016 10.292C133.8 9.908 134.064 9.524 134.448 9.284C135.36 8.756 136.056 7.34 135.864 5.852ZM150.72 13.364L152.352 14.372C152.16 14.588 151.968 14.66 151.488 14.516C150.6 15.188 149.088 16.076 147.696 16.772C149.424 18.86 151.848 20.372 154.896 21.236L154.848 21.476C154.296 21.524 153.888 21.86 153.672 22.388C149.016 20.636 146.184 17.468 144.84 12.524H143.928C143.376 12.884 142.776 13.244 142.128 13.556C146.136 16.34 146.256 21.092 144.84 22.556C144.432 23.012 143.808 23.252 142.632 23.252C142.608 22.916 142.44 22.7 142.176 22.532C141.864 22.364 141.024 22.196 140.304 22.124L140.28 21.692C141.192 21.764 142.872 21.836 143.4 21.836C143.688 21.836 143.832 21.812 143.976 21.644C144.552 21.068 144.744 19.652 144.336 18.02C141.432 19.868 137.064 21.5 133.104 22.268L132.96 21.812C136.872 20.876 141.36 18.98 143.928 16.892C143.76 16.484 143.544 16.076 143.28 15.668C140.832 17.012 137.232 18.38 134.064 19.1L133.896 18.668C136.92 17.828 140.496 16.292 142.656 14.804C142.368 14.468 142.032 14.108 141.648 13.796C139.464 14.828 136.896 15.596 134.304 16.1L134.064 15.668C136.968 14.9 139.848 13.796 142.008 12.524H134.592L134.4 11.804H151.248L152.184 10.7C152.184 10.7 153.264 11.492 153.936 12.14C153.864 12.404 153.648 12.524 153.336 12.524H145.392C145.872 13.964 146.52 15.236 147.384 16.364C148.584 15.452 149.976 14.18 150.72 13.364ZM167.976 15.188C173.016 17.18 172.2 20.348 170.736 19.412C170.352 18.092 168.888 16.364 167.712 15.404L167.976 15.188ZM171.936 1.58L173.88 1.796C173.832 2.132 173.568 2.372 172.992 2.444V4.964H176.28L177.264 3.74C177.264 3.74 178.416 4.652 179.112 5.3C179.04 5.564 178.824 5.684 178.512 5.684H172.992V9.308H177.576L178.584 8.06C178.584 8.06 179.712 8.972 180.408 9.62C180.336 9.884 180.12 10.004 179.784 10.004H165.672L165.48 9.308H171.936V5.684H166.92L166.728 4.964H171.936V1.58ZM175.296 10.316L177.192 10.556C177.12 10.892 176.928 11.084 176.352 11.156V13.388H177.408L178.416 12.164C178.416 12.164 179.52 13.052 180.216 13.724C180.192 13.988 179.952 14.108 179.616 14.108H176.352V21.308C176.352 22.34 176.16 23.036 174.24 23.228C174.168 22.892 174.048 22.58 173.736 22.388C173.376 22.172 172.704 22.052 171.648 21.932V21.524C171.648 21.524 174.192 21.716 174.696 21.716C175.176 21.716 175.296 21.572 175.296 21.212V14.108H165.72L165.528 13.388H175.296V10.316ZM158.04 14.636C158.88 14.42 160.392 13.892 162.24 13.196V7.772H160.08C159.696 9.092 159.192 10.292 158.592 11.252L158.16 11.06C159.024 8.972 159.624 6.068 159.816 3.212L161.712 3.524C161.64 3.812 161.4 4.052 160.92 4.1C160.752 5.084 160.56 6.092 160.296 7.052H162.24V1.46L164.16 1.676C164.088 2.012 163.896 2.252 163.296 2.348V7.052H164.28L165.264 5.852C165.264 5.852 166.368 6.716 167.088 7.388C167.016 7.652 166.8 7.772 166.464 7.772H163.296V12.812L166.848 11.468L166.992 11.852L163.296 13.7V22.748C163.296 22.964 162.864 23.252 162.456 23.252H162.24V14.204L159.336 15.572C159.264 15.836 159.096 16.052 158.904 16.148L158.04 14.636ZM195.48 7.1L197.424 7.58C197.328 7.844 197.16 7.964 196.56 7.964C195.84 10.124 194.232 12.38 191.496 13.412L191.328 13.004C193.632 11.804 195 9.428 195.48 7.1ZM199.104 7.076L200.784 7.316C200.736 7.58 200.52 7.796 200.16 7.868V10.772C200.16 11.036 200.232 11.084 200.76 11.084H202.2C202.848 11.084 203.376 11.084 203.544 11.06C203.736 11.06 203.808 11.036 203.856 10.844C203.976 10.556 204.168 9.644 204.312 8.732H204.648L204.72 10.892C205.104 11.012 205.2 11.132 205.2 11.324C205.2 11.828 204.696 12.044 202.224 12.044H200.568C199.296 12.044 199.104 11.756 199.104 10.988V7.076ZM191.208 6.14L194.376 6.092C195.12 4.7 195.984 2.876 196.536 1.532L198.504 2.228C198.384 2.492 198.072 2.684 197.568 2.636C196.968 3.62 196.032 4.94 195.096 6.068C197.232 6.02 199.872 5.924 202.608 5.804C201.792 4.964 200.808 4.148 199.992 3.596L200.256 3.356C205.848 5.396 205.392 8.228 203.976 7.532C203.784 7.148 203.448 6.716 203.064 6.284C200.544 6.548 197.136 6.86 192.504 7.244C192.384 7.532 192.144 7.676 191.928 7.724L191.208 6.14ZM201.36 15.188H195.744L195.48 15.5C196.248 16.772 197.184 17.924 198.336 18.884C199.608 17.828 200.616 16.58 201.36 15.188ZM196.44 11.732L198.384 12.332C198.264 12.596 198.072 12.692 197.52 12.62C197.184 13.22 196.776 13.844 196.32 14.468H201.456L202.32 13.7L203.736 15.02C203.544 15.212 203.28 15.284 202.704 15.284C201.792 16.916 200.616 18.308 199.128 19.484C200.808 20.684 202.944 21.548 205.728 22.1L205.656 22.34C205.224 22.412 204.792 22.7 204.648 23.228C201.936 22.484 199.92 21.428 198.336 20.06C196.224 21.524 193.536 22.58 190.2 23.252L190.008 22.82C193.056 22.052 195.624 20.924 197.64 19.436C196.632 18.404 195.816 17.228 195.096 15.908C193.92 17.156 192.528 18.284 190.992 19.076L190.704 18.764C193.152 17.18 195.384 14.348 196.44 11.732ZM186.912 1.556L188.832 1.772C188.76 2.132 188.568 2.348 187.992 2.444V7.004H188.76L189.696 5.852C189.696 5.852 190.776 6.692 191.448 7.34C191.376 7.604 191.184 7.724 190.848 7.724H187.992V10.988C192.072 13.076 191.184 15.548 189.936 14.684C189.648 13.724 188.736 12.428 187.992 11.492V22.772C187.992 22.988 187.536 23.252 187.152 23.252H186.912V10.988C186.192 13.436 185.136 15.692 183.648 17.66L183.288 17.348C184.944 14.588 185.976 11.204 186.528 7.724H183.816L183.624 7.004H186.912V1.556ZM223.032 3.548L224.976 3.788C224.904 4.124 224.688 4.364 224.112 4.436V18.14C224.112 18.332 223.656 18.62 223.248 18.62H223.032V3.548ZM228.216 1.964L230.16 2.204C230.088 2.54 229.848 2.78 229.272 2.852V21.308C229.272 22.34 229.056 23.06 227.16 23.276C227.064 22.94 226.92 22.628 226.608 22.412C226.224 22.196 225.552 22.076 224.448 21.932V21.548C224.448 21.548 227.088 21.764 227.568 21.764C228.072 21.764 228.216 21.596 228.216 21.188V1.964ZM219.744 1.532L221.28 2.852C221.112 3.044 220.704 3.044 220.176 2.852C219.096 3.236 217.752 3.62 216.288 3.98V8.78H219.24L220.2 7.58C220.2 7.58 221.328 8.444 222.024 9.116C221.952 9.38 221.736 9.5 221.4 9.5H216.288V11.252C222.048 14.012 221.424 17.204 220.008 16.292C219.504 14.852 217.728 12.956 216.288 11.732V22.844C216.288 22.964 215.88 23.252 215.376 23.252H215.208V11.276C213.648 14.372 211.392 17.156 208.656 19.292L208.344 18.956C211.08 16.412 213.288 12.956 214.632 9.5H209.304L209.112 8.78H215.208V4.22C213.336 4.652 211.272 4.988 209.28 5.18L209.16 4.748C213 4.1 217.488 2.708 219.744 1.532ZM241.416 6.524L243.264 7.532C243.144 7.772 242.808 7.94 242.304 7.844C241.08 10.748 238.824 14.852 236.544 18.02L242.112 17.324C241.584 15.956 240.768 14.54 240.096 13.532L240.432 13.388C244.92 17.204 243.912 20.492 242.64 19.316C242.592 18.836 242.448 18.332 242.28 17.78C240.408 18.236 237.984 18.788 234.936 19.412C234.816 19.7 234.6 19.868 234.384 19.916L233.64 18.332L235.824 18.116C237.888 14.684 240.12 10.052 241.416 6.524ZM238.704 1.676L240.72 2.444C240.6 2.684 240.336 2.9 239.856 2.876C238.848 4.868 237.6 7.148 236.424 8.756C239.016 10.892 238.296 12.836 237.192 12.092C236.784 10.604 235.104 8.612 233.76 7.508L234.048 7.292C234.816 7.676 235.464 8.06 235.992 8.444C236.88 6.62 237.936 4.004 238.704 1.676ZM247.608 1.724L249.648 1.964C249.576 2.3 249.408 2.54 248.808 2.636L248.736 6.98H253.416L254.136 6.164L255.72 7.436C255.528 7.628 255.24 7.748 254.712 7.796C254.544 15.5 254.04 20.804 252.984 22.1C252.408 22.82 251.496 23.132 250.536 23.132C250.536 22.796 250.464 22.46 250.128 22.244C249.768 22.052 248.688 21.836 247.776 21.716L247.824 21.236C248.88 21.356 250.68 21.548 251.184 21.548C251.712 21.548 251.88 21.476 252.168 21.212C253.032 20.348 253.464 15.068 253.656 7.7H248.688C248.424 13.772 247.272 19.268 241.224 23.228L240.864 22.796C246.192 18.884 247.296 13.676 247.536 7.7H243.96L243.744 6.98H247.56C247.608 5.276 247.608 3.524 247.608 1.724ZM271.272 8.036H276.96V3.98H271.2L270.984 3.26H276.72L277.44 2.468L279.072 3.74C278.904 3.932 278.496 4.124 278.016 4.22V14.444C277.992 14.588 277.464 14.9 277.104 14.9H276.96V13.724H272.784V21.38C272.784 21.788 272.88 21.908 273.912 21.908H276.552C277.8 21.908 278.76 21.884 279.12 21.86C279.408 21.836 279.456 21.764 279.552 21.548C279.696 21.164 279.936 19.82 280.152 18.452H280.488L280.536 21.644C280.992 21.788 281.088 21.908 281.088 22.148C281.088 22.7 280.464 22.868 276.6 22.868H273.792C272.064 22.868 271.704 22.532 271.704 21.572V13.724H268.008C267.312 19.1 265.104 21.668 259.272 23.276L259.104 22.868C264.456 20.996 266.352 18.524 266.88 13.724H263.064V14.708C263.04 14.804 262.728 15.092 262.104 15.092H262.008V3.26L263.592 3.86C265.272 3.164 267.048 2.228 268.008 1.508L269.52 2.564C269.352 2.78 268.992 2.78 268.488 2.636C267.216 3.26 265.032 4.124 263.064 4.604V8.036H266.688L267.624 6.884C267.624 6.884 268.68 7.748 269.376 8.372C269.304 8.636 269.088 8.756 268.752 8.756H263.064V13.004H276.96V8.756H271.488L271.272 8.036ZM300.6 14.276L301.752 15.404C301.632 15.548 301.44 15.596 301.032 15.428C300.48 15.812 299.592 16.436 298.824 16.916C299.616 17.252 300.288 17.588 300.816 17.948C302.136 18.908 301.92 20.036 300.816 19.412C299.832 18.356 297.768 17.06 295.656 16.364V19.964C295.656 20.084 295.272 20.372 294.768 20.372H294.624V15.332C293.064 17.132 290.976 18.62 288.6 19.7L288.312 19.268C290.592 18.02 292.608 16.34 293.976 14.492H291.192V15.14C291.192 15.236 290.712 15.476 290.304 15.476H290.136V10.268L291.312 10.868H298.8L299.448 10.196L300.864 11.276C300.744 11.42 300.408 11.612 300.048 11.66V14.828C300.024 14.972 299.496 15.26 299.136 15.26H298.992V14.492H295.656V15.932C296.64 16.172 297.552 16.436 298.344 16.724C299.064 16.052 300 14.972 300.6 14.276ZM295.656 13.796H298.992V11.564H291.192V13.796H295.656ZM288.024 8.66H294.624V6.86H289.512L289.32 6.164H294.624V4.1L296.376 4.316C296.328 4.604 296.136 4.796 295.68 4.844V6.164H298.776L299.616 5.108C299.616 5.108 300.576 5.9 301.2 6.476C301.128 6.74 300.912 6.86 300.576 6.86H295.68V8.66H300L300.888 7.604C300.888 7.604 301.872 8.372 302.496 8.996C302.424 9.26 302.208 9.38 301.872 9.38H288.216L288.024 8.66ZM285.72 2.852V2.18L286.896 2.852H303.36L304.08 2.012L305.736 3.308C305.568 3.5 305.136 3.692 304.656 3.788V22.532C304.656 22.676 304.128 23.012 303.744 23.012H303.6V21.86H286.776V22.796C286.776 22.964 286.416 23.252 285.912 23.252H285.72V2.852ZM303.6 21.14V3.548H286.776V21.14H303.6Z" fill="white"/>
<path d="M1.56 42.148L1.69 35.674L1.976 35.7L1.859 42.148C1.85033 42.59 1.91967 42.902 2.067 43.084C2.223 43.2573 2.51767 43.344 2.951 43.344C2.96833 43.344 2.977 43.37 2.977 43.422C2.977 43.474 2.96833 43.5 2.951 43.5C2.76033 43.5 2.561 43.4957 2.353 43.487C2.15367 43.4783 1.93267 43.474 1.69 43.474C1.482 43.474 1.28267 43.4783 1.092 43.487C0.901333 43.4957 0.719333 43.5 0.546 43.5C0.528667 43.5 0.52 43.474 0.52 43.422C0.52 43.37 0.528667 43.344 0.546 43.344C0.91 43.344 1.16567 43.2573 1.313 43.084C1.469 42.902 1.55133 42.59 1.56 42.148ZM10.491 43.344C10.517 43.344 10.53 43.37 10.53 43.422C10.53 43.474 10.517 43.5 10.491 43.5C10.283 43.5 10.049 43.4957 9.789 43.487C9.53767 43.4783 9.269 43.474 8.983 43.474C8.71433 43.474 8.46733 43.4783 8.242 43.487C8.01667 43.4957 7.813 43.5 7.631 43.5C7.61367 43.5 7.605 43.474 7.605 43.422C7.605 43.37 7.61367 43.344 7.631 43.344C8.06433 43.344 8.34167 43.2877 8.463 43.175C8.593 43.0623 8.64933 42.8197 8.632 42.447L8.398 36.038L8.775 35.557L5.369 43.409C5.36033 43.4437 5.32567 43.461 5.265 43.461C5.20433 43.461 5.16533 43.4437 5.148 43.409L1.976 36.454C1.69867 35.8387 1.25233 35.531 0.637 35.531C0.619667 35.531 0.611 35.505 0.611 35.453C0.611 35.401 0.619667 35.375 0.637 35.375C0.767 35.375 0.905667 35.3793 1.053 35.388C1.20033 35.3967 1.32167 35.401 1.417 35.401C1.53833 35.401 1.651 35.3967 1.755 35.388C1.859 35.3793 1.937 35.375 1.989 35.375C2.11033 35.375 2.20567 35.414 2.275 35.492C2.34433 35.57 2.44833 35.7563 2.587 36.051L5.564 42.486L5.226 43.032L8.424 35.7C8.46733 35.6047 8.52367 35.5267 8.593 35.466C8.671 35.4053 8.74467 35.375 8.814 35.375C8.85733 35.375 8.92233 35.3793 9.009 35.388C9.09567 35.3967 9.19533 35.401 9.308 35.401C9.53333 35.401 9.71533 35.3967 9.854 35.388C9.99267 35.3793 10.14 35.375 10.296 35.375C10.3133 35.375 10.322 35.401 10.322 35.453C10.322 35.505 10.3133 35.531 10.296 35.531C9.87133 35.531 9.55933 35.5873 9.36 35.7C9.16067 35.804 9.06533 36.038 9.074 36.402L9.321 42.447C9.32967 42.6983 9.36 42.889 9.412 43.019C9.47267 43.149 9.58533 43.2357 9.75 43.279C9.91467 43.3223 10.1617 43.344 10.491 43.344ZM14.847 42.447C14.847 42.6983 14.873 42.889 14.925 43.019C14.977 43.149 15.0853 43.2357 15.25 43.279C15.4233 43.3223 15.6747 43.344 16.004 43.344C16.0213 43.344 16.03 43.37 16.03 43.422C16.03 43.474 16.0213 43.5 16.004 43.5C15.796 43.5 15.5663 43.4957 15.315 43.487C15.0637 43.4783 14.7863 43.474 14.483 43.474C14.197 43.474 13.924 43.4783 13.664 43.487C13.4127 43.4957 13.183 43.5 12.975 43.5C12.949 43.5 12.936 43.474 12.936 43.422C12.936 43.37 12.949 43.344 12.975 43.344C13.3043 43.344 13.5513 43.3223 13.716 43.279C13.8893 43.2357 14.002 43.149 14.054 43.019C14.1147 42.889 14.145 42.6983 14.145 42.447V36.428C14.145 36.1767 14.1147 35.9903 14.054 35.869C14.002 35.739 13.8893 35.6523 13.716 35.609C13.5513 35.557 13.3043 35.531 12.975 35.531C12.949 35.531 12.936 35.505 12.936 35.453C12.936 35.401 12.949 35.375 12.975 35.375C13.183 35.375 13.4127 35.3837 13.664 35.401C13.924 35.4097 14.197 35.414 14.483 35.414C14.7863 35.414 15.0637 35.4097 15.315 35.401C15.575 35.3837 15.8047 35.375 16.004 35.375C16.0213 35.375 16.03 35.401 16.03 35.453C16.03 35.505 16.0213 35.531 16.004 35.531C15.6747 35.531 15.4277 35.557 15.263 35.609C15.0983 35.661 14.9857 35.752 14.925 35.882C14.873 36.012 14.847 36.2027 14.847 36.454V42.447ZM25.482 43.5C25.4647 43.5 25.456 43.474 25.456 43.422C25.456 43.37 25.4647 43.344 25.482 43.344C25.8374 43.344 26.067 43.2877 26.171 43.175C26.2837 43.0623 26.34 42.8197 26.34 42.447V40.328C26.34 39.2967 25.9544 38.781 25.183 38.781C24.8624 38.781 24.5374 38.8937 24.208 39.119C23.8874 39.3357 23.6014 39.6303 23.35 40.003L23.298 39.847C23.6967 39.3097 24.0737 38.9283 24.429 38.703C24.793 38.469 25.1614 38.352 25.534 38.352C25.9847 38.352 26.3314 38.482 26.574 38.742C26.8254 38.9933 26.951 39.3877 26.951 39.925V42.447C26.951 42.8197 26.9987 43.0623 27.094 43.175C27.198 43.2877 27.432 43.344 27.796 43.344C27.822 43.344 27.835 43.37 27.835 43.422C27.835 43.474 27.822 43.5 27.796 43.5C27.6487 43.5 27.4754 43.4957 27.276 43.487C27.0767 43.4783 26.8644 43.474 26.639 43.474C26.4224 43.474 26.2144 43.4783 26.015 43.487C25.8157 43.4957 25.638 43.5 25.482 43.5ZM22.141 43.5C22.115 43.5 22.102 43.474 22.102 43.422C22.102 43.37 22.115 43.344 22.141 43.344C22.4964 43.344 22.726 43.2877 22.83 43.175C22.934 43.0623 22.986 42.8197 22.986 42.447V40.328C22.986 39.2967 22.6047 38.781 21.842 38.781C21.5214 38.781 21.1964 38.8937 20.867 39.119C20.5464 39.3357 20.2604 39.6303 20.009 40.003L19.957 39.847C20.347 39.3097 20.7197 38.9283 21.075 38.703C21.439 38.469 21.8074 38.352 22.18 38.352C22.6307 38.352 22.9774 38.482 23.22 38.742C23.4714 38.9933 23.597 39.3877 23.597 39.925V42.447C23.597 42.8197 23.649 43.0623 23.753 43.175C23.857 43.2877 24.091 43.344 24.455 43.344C24.4724 43.344 24.481 43.37 24.481 43.422C24.481 43.474 24.4724 43.5 24.455 43.5C24.299 43.5 24.1214 43.4957 23.922 43.487C23.7314 43.4783 23.5234 43.474 23.298 43.474C23.0814 43.474 22.869 43.4783 22.661 43.487C22.4617 43.4957 22.2884 43.5 22.141 43.5ZM18.8 43.5C18.774 43.5 18.761 43.474 18.761 43.422C18.761 43.37 18.774 43.344 18.8 43.344C19.1554 43.344 19.385 43.2877 19.489 43.175C19.593 43.0623 19.645 42.8197 19.645 42.447V39.847C19.645 39.5523 19.6104 39.34 19.541 39.21C19.4717 39.0713 19.3504 39.002 19.177 39.002C19.0904 39.002 18.9864 39.0193 18.865 39.054C18.7437 39.0887 18.605 39.1363 18.449 39.197C18.4144 39.2057 18.384 39.1883 18.358 39.145C18.3407 39.1017 18.3494 39.0713 18.384 39.054L19.827 38.378C19.8444 38.3693 19.866 38.365 19.892 38.365C19.9527 38.365 20.0264 38.456 20.113 38.638C20.2084 38.8113 20.256 39.067 20.256 39.405V42.447C20.256 42.8197 20.3037 43.0623 20.399 43.175C20.503 43.2877 20.737 43.344 21.101 43.344C21.127 43.344 21.14 43.37 21.14 43.422C21.14 43.474 21.127 43.5 21.101 43.5C20.9537 43.5 20.7804 43.4957 20.581 43.487C20.3817 43.4783 20.1737 43.474 19.957 43.474C19.7404 43.474 19.528 43.4783 19.32 43.487C19.1207 43.4957 18.9474 43.5 18.8 43.5ZM30.38 43.5C30.3627 43.5 30.354 43.474 30.354 43.422C30.354 43.37 30.3627 43.344 30.38 43.344C30.7353 43.344 30.965 43.2877 31.069 43.175C31.1817 43.0623 31.238 42.8197 31.238 42.447V39.99C31.238 39.678 31.2077 39.4527 31.147 39.314C31.0863 39.1667 30.9737 39.093 30.809 39.093C30.731 39.093 30.64 39.1103 30.536 39.145C30.4407 39.171 30.3237 39.2187 30.185 39.288C30.1503 39.2967 30.12 39.2793 30.094 39.236C30.0767 39.184 30.0853 39.1493 30.12 39.132L31.732 38.378C31.758 38.3693 31.7753 38.365 31.784 38.365C31.8013 38.365 31.8187 38.3737 31.836 38.391C31.862 38.4083 31.875 38.43 31.875 38.456C31.875 38.5167 31.8707 38.6857 31.862 38.963C31.8533 39.2317 31.849 39.5697 31.849 39.977V42.447C31.849 42.8197 31.8967 43.0623 31.992 43.175C32.096 43.2877 32.33 43.344 32.694 43.344C32.72 43.344 32.733 43.37 32.733 43.422C32.733 43.474 32.72 43.5 32.694 43.5C32.5467 43.5 32.3733 43.4957 32.174 43.487C31.9747 43.4783 31.7623 43.474 31.537 43.474C31.3203 43.474 31.1123 43.4783 30.913 43.487C30.7137 43.4957 30.536 43.5 30.38 43.5ZM31.433 36.792C31.2683 36.792 31.1383 36.7487 31.043 36.662C30.9563 36.5753 30.913 36.454 30.913 36.298C30.913 36.142 30.9563 36.0207 31.043 35.934C31.1383 35.8473 31.2683 35.804 31.433 35.804C31.589 35.804 31.7103 35.8473 31.797 35.934C31.8837 36.0207 31.927 36.142 31.927 36.298C31.927 36.6273 31.7623 36.792 31.433 36.792ZM44.6769 35.232C45.0669 35.232 45.4006 35.2493 45.6779 35.284C45.9639 35.3187 46.2283 35.3793 46.4709 35.466C46.7136 35.544 46.9693 35.6523 47.2379 35.791C47.2899 35.8257 47.3203 35.856 47.3289 35.882C47.3463 35.8993 47.3593 35.9643 47.3679 36.077L47.5239 37.559C47.5239 37.5763 47.4979 37.5937 47.4459 37.611C47.4026 37.6197 47.3766 37.6067 47.3679 37.572C47.1773 36.8527 46.8609 36.3153 46.4189 35.96C45.9856 35.596 45.4049 35.414 44.6769 35.414C43.9056 35.414 43.2339 35.5743 42.6619 35.895C42.0899 36.2157 41.6436 36.6707 41.3229 37.26C41.0109 37.8493 40.8549 38.5427 40.8549 39.34C40.8549 39.9033 40.9546 40.4363 41.1539 40.939C41.3619 41.4417 41.6436 41.8837 41.9989 42.265C42.3629 42.6463 42.7746 42.9453 43.2339 43.162C43.6933 43.3787 44.1829 43.487 44.7029 43.487C45.4483 43.487 46.0463 43.3093 46.4969 42.954C46.9476 42.59 47.2683 42.0613 47.4589 41.368C47.4676 41.342 47.4936 41.3333 47.5369 41.342C47.5889 41.3507 47.6149 41.3637 47.6149 41.381L47.5109 42.759C47.5023 42.863 47.4893 42.928 47.4719 42.954C47.4546 42.98 47.4199 43.0103 47.3679 43.045C46.9086 43.2877 46.4796 43.4523 46.0809 43.539C45.6909 43.6257 45.2273 43.669 44.6899 43.669C43.7799 43.669 42.9739 43.4913 42.2719 43.136C41.5699 42.772 41.0196 42.265 40.6209 41.615C40.2223 40.965 40.0229 40.211 40.0229 39.353C40.0229 38.729 40.1356 38.1657 40.3609 37.663C40.5949 37.1603 40.9199 36.727 41.3359 36.363C41.7606 35.999 42.2546 35.7217 42.8179 35.531C43.3813 35.3317 44.0009 35.232 44.6769 35.232ZM53.9397 43.578C53.9051 43.5953 53.8704 43.604 53.8357 43.604C53.7317 43.604 53.6364 43.513 53.5497 43.331C53.4631 43.149 53.4197 42.8847 53.4197 42.538V40.029C53.4197 39.4917 53.3331 39.119 53.1597 38.911C52.9951 38.703 52.7871 38.599 52.5357 38.599C52.3191 38.599 52.1371 38.651 51.9897 38.755C51.8511 38.8503 51.7427 38.9717 51.6647 39.119C51.5954 39.2663 51.5434 39.405 51.5087 39.535C51.4914 39.6217 51.4611 39.7257 51.4177 39.847C51.3744 39.9597 51.2661 40.016 51.0927 40.016C50.9627 40.016 50.8631 39.977 50.7937 39.899C50.7331 39.821 50.7027 39.7387 50.7027 39.652C50.7027 39.5047 50.7807 39.3573 50.9367 39.21C51.0927 39.054 51.2877 38.911 51.5217 38.781C51.7644 38.651 52.0157 38.547 52.2757 38.469C52.5357 38.391 52.7741 38.352 52.9907 38.352C53.3461 38.352 53.6061 38.469 53.7707 38.703C53.9354 38.9283 54.0177 39.2403 54.0177 39.639V42.096C54.0177 42.408 54.0524 42.6377 54.1217 42.785C54.1997 42.9237 54.3297 42.993 54.5117 42.993C54.6764 42.993 54.9147 42.928 55.2267 42.798C55.2701 42.7807 55.3004 42.798 55.3177 42.85C55.3351 42.8933 55.3221 42.9237 55.2787 42.941L53.9397 43.578ZM51.6387 43.591C51.3181 43.591 51.0711 43.5043 50.8977 43.331C50.7331 43.149 50.6507 42.941 50.6507 42.707C50.6507 42.5597 50.6854 42.4167 50.7547 42.278C50.8327 42.1393 50.9627 42.005 51.1447 41.875C51.3354 41.745 51.5954 41.6193 51.9247 41.498L53.5497 40.887L53.5757 41.056L52.0417 41.641C51.8597 41.7103 51.7211 41.7883 51.6257 41.875C51.5304 41.953 51.4654 42.0397 51.4307 42.135C51.3961 42.2217 51.3787 42.3127 51.3787 42.408C51.3787 42.5987 51.4394 42.772 51.5607 42.928C51.6907 43.084 51.8771 43.162 52.1197 43.162C52.2151 43.162 52.3147 43.149 52.4187 43.123C52.5227 43.0883 52.6484 43.0277 52.7957 42.941L53.6667 42.434L53.6927 42.59L52.7177 43.201C52.5011 43.3397 52.3104 43.4393 52.1457 43.5C51.9811 43.5607 51.8121 43.591 51.6387 43.591ZM58.125 39.314C58.125 39.548 58.1814 39.7473 58.294 39.912C58.4154 40.068 58.567 40.2023 58.749 40.315C58.9397 40.419 59.1347 40.523 59.334 40.627C59.5594 40.731 59.7717 40.848 59.971 40.978C60.1704 41.0993 60.335 41.2467 60.465 41.42C60.595 41.5933 60.66 41.8187 60.66 42.096C60.66 42.3733 60.5907 42.629 60.452 42.863C60.3134 43.097 60.1054 43.2877 59.828 43.435C59.5594 43.5737 59.23 43.643 58.84 43.643C58.632 43.643 58.4284 43.6127 58.229 43.552C58.0297 43.5 57.826 43.396 57.618 43.24C57.6007 43.2227 57.5834 43.201 57.566 43.175C57.5487 43.149 57.54 43.1187 57.54 43.084L57.514 42.148C57.514 42.122 57.5357 42.109 57.579 42.109C57.631 42.1003 57.6614 42.109 57.67 42.135C57.7827 42.4297 57.9127 42.6723 58.06 42.863C58.216 43.045 58.3894 43.1793 58.58 43.266C58.7707 43.3527 58.983 43.396 59.217 43.396C59.5204 43.396 59.75 43.3267 59.906 43.188C60.0707 43.0407 60.1444 42.824 60.127 42.538C60.1184 42.2867 60.0534 42.083 59.932 41.927C59.8107 41.771 59.659 41.641 59.477 41.537C59.295 41.433 59.1044 41.3333 58.905 41.238C58.6884 41.134 58.4804 41.0257 58.281 40.913C58.0904 40.7917 57.93 40.64 57.8 40.458C57.6787 40.276 57.618 40.042 57.618 39.756C57.618 39.4267 57.7047 39.158 57.878 38.95C58.0514 38.7333 58.268 38.573 58.528 38.469C58.7967 38.365 59.074 38.313 59.36 38.313C59.516 38.313 59.672 38.3303 59.828 38.365C59.984 38.391 60.1357 38.4387 60.283 38.508C60.361 38.5427 60.4 38.5903 60.4 38.651C60.4 38.781 60.3957 38.9197 60.387 39.067C60.3784 39.2143 60.374 39.3747 60.374 39.548C60.374 39.5653 60.348 39.574 60.296 39.574C60.244 39.574 60.218 39.5653 60.218 39.548C60.218 39.3487 60.1444 39.1753 59.997 39.028C59.8584 38.8807 59.685 38.768 59.477 38.69C59.2777 38.612 59.0784 38.573 58.879 38.573C58.645 38.573 58.4587 38.6337 58.32 38.755C58.19 38.8763 58.125 39.0627 58.125 39.314ZM66.8986 43.578C66.8639 43.5953 66.8293 43.604 66.7946 43.604C66.6906 43.604 66.5953 43.513 66.5086 43.331C66.4219 43.149 66.3786 42.8847 66.3786 42.538V40.029C66.3786 39.4917 66.2919 39.119 66.1186 38.911C65.9539 38.703 65.7459 38.599 65.4946 38.599C65.2779 38.599 65.0959 38.651 64.9486 38.755C64.8099 38.8503 64.7016 38.9717 64.6236 39.119C64.5543 39.2663 64.5023 39.405 64.4676 39.535C64.4503 39.6217 64.4199 39.7257 64.3766 39.847C64.3333 39.9597 64.2249 40.016 64.0516 40.016C63.9216 40.016 63.8219 39.977 63.7526 39.899C63.6919 39.821 63.6616 39.7387 63.6616 39.652C63.6616 39.5047 63.7396 39.3573 63.8956 39.21C64.0516 39.054 64.2466 38.911 64.4806 38.781C64.7233 38.651 64.9746 38.547 65.2346 38.469C65.4946 38.391 65.7329 38.352 65.9496 38.352C66.3049 38.352 66.5649 38.469 66.7296 38.703C66.8943 38.9283 66.9766 39.2403 66.9766 39.639V42.096C66.9766 42.408 67.0113 42.6377 67.0806 42.785C67.1586 42.9237 67.2886 42.993 67.4706 42.993C67.6353 42.993 67.8736 42.928 68.1856 42.798C68.2289 42.7807 68.2593 42.798 68.2766 42.85C68.2939 42.8933 68.2809 42.9237 68.2376 42.941L66.8986 43.578ZM64.5976 43.591C64.2769 43.591 64.0299 43.5043 63.8566 43.331C63.6919 43.149 63.6096 42.941 63.6096 42.707C63.6096 42.5597 63.6443 42.4167 63.7136 42.278C63.7916 42.1393 63.9216 42.005 64.1036 41.875C64.2943 41.745 64.5543 41.6193 64.8836 41.498L66.5086 40.887L66.5346 41.056L65.0006 41.641C64.8186 41.7103 64.6799 41.7883 64.5846 41.875C64.4893 41.953 64.4243 42.0397 64.3896 42.135C64.3549 42.2217 64.3376 42.3127 64.3376 42.408C64.3376 42.5987 64.3983 42.772 64.5196 42.928C64.6496 43.084 64.8359 43.162 65.0786 43.162C65.1739 43.162 65.2736 43.149 65.3776 43.123C65.4816 43.0883 65.6073 43.0277 65.7546 42.941L66.6256 42.434L66.6516 42.59L65.6766 43.201C65.4599 43.3397 65.2693 43.4393 65.1046 43.5C64.9399 43.5607 64.7709 43.591 64.5976 43.591ZM76.0028 42.148L76.1328 35.674L76.4188 35.7L76.3018 42.148C76.2931 42.59 76.3624 42.902 76.5098 43.084C76.6658 43.2573 76.9604 43.344 77.3938 43.344C77.4111 43.344 77.4198 43.37 77.4198 43.422C77.4198 43.474 77.4111 43.5 77.3938 43.5C77.2031 43.5 77.0038 43.4957 76.7958 43.487C76.5964 43.4783 76.3754 43.474 76.1328 43.474C75.9248 43.474 75.7254 43.4783 75.5348 43.487C75.3441 43.4957 75.1621 43.5 74.9888 43.5C74.9714 43.5 74.9628 43.474 74.9628 43.422C74.9628 43.37 74.9714 43.344 74.9888 43.344C75.3528 43.344 75.6084 43.2573 75.7558 43.084C75.9118 42.902 75.9941 42.59 76.0028 42.148ZM84.9338 43.344C84.9598 43.344 84.9728 43.37 84.9728 43.422C84.9728 43.474 84.9598 43.5 84.9338 43.5C84.7258 43.5 84.4918 43.4957 84.2318 43.487C83.9804 43.4783 83.7118 43.474 83.4258 43.474C83.1571 43.474 82.9101 43.4783 82.6848 43.487C82.4594 43.4957 82.2558 43.5 82.0738 43.5C82.0564 43.5 82.0478 43.474 82.0478 43.422C82.0478 43.37 82.0564 43.344 82.0738 43.344C82.5071 43.344 82.7844 43.2877 82.9058 43.175C83.0358 43.0623 83.0921 42.8197 83.0748 42.447L82.8408 36.038L83.2178 35.557L79.8118 43.409C79.8031 43.4437 79.7684 43.461 79.7078 43.461C79.6471 43.461 79.6081 43.4437 79.5908 43.409L76.4188 36.454C76.1414 35.8387 75.6951 35.531 75.0798 35.531C75.0624 35.531 75.0538 35.505 75.0538 35.453C75.0538 35.401 75.0624 35.375 75.0798 35.375C75.2098 35.375 75.3484 35.3793 75.4958 35.388C75.6431 35.3967 75.7644 35.401 75.8598 35.401C75.9811 35.401 76.0938 35.3967 76.1978 35.388C76.3018 35.3793 76.3798 35.375 76.4318 35.375C76.5531 35.375 76.6484 35.414 76.7178 35.492C76.7871 35.57 76.8911 35.7563 77.0298 36.051L80.0068 42.486L79.6688 43.032L82.8668 35.7C82.9101 35.6047 82.9664 35.5267 83.0358 35.466C83.1138 35.4053 83.1874 35.375 83.2568 35.375C83.3001 35.375 83.3651 35.3793 83.4518 35.388C83.5384 35.3967 83.6381 35.401 83.7508 35.401C83.9761 35.401 84.1581 35.3967 84.2968 35.388C84.4354 35.3793 84.5828 35.375 84.7388 35.375C84.7561 35.375 84.7648 35.401 84.7648 35.453C84.7648 35.505 84.7561 35.531 84.7388 35.531C84.3141 35.531 84.0021 35.5873 83.8028 35.7C83.6034 35.804 83.5081 36.038 83.5168 36.402L83.7638 42.447C83.7724 42.6983 83.8028 42.889 83.8548 43.019C83.9154 43.149 84.0281 43.2357 84.1928 43.279C84.3574 43.3223 84.6044 43.344 84.9338 43.344ZM89.7838 43.669C89.2725 43.669 88.8261 43.5433 88.4448 43.292C88.0721 43.0407 87.7818 42.707 87.5738 42.291C87.3745 41.8663 87.2748 41.4113 87.2748 40.926C87.2748 40.4753 87.3571 40.0853 87.5218 39.756C87.6865 39.4267 87.9031 39.158 88.1718 38.95C88.4491 38.7333 88.7481 38.573 89.0688 38.469C89.3895 38.365 89.7058 38.313 90.0178 38.313C90.5378 38.313 90.9841 38.443 91.3568 38.703C91.7295 38.963 92.0155 39.2967 92.2148 39.704C92.4141 40.1113 92.5138 40.5403 92.5138 40.991C92.5138 41.5457 92.3881 42.0223 92.1368 42.421C91.8855 42.8197 91.5518 43.1273 91.1358 43.344C90.7285 43.5607 90.2778 43.669 89.7838 43.669ZM90.1478 43.435C90.6331 43.435 91.0231 43.2747 91.3178 42.954C91.6125 42.6247 91.7598 42.083 91.7598 41.329C91.7598 40.8003 91.6688 40.328 91.4868 39.912C91.3048 39.496 91.0491 39.1667 90.7198 38.924C90.3991 38.6813 90.0221 38.56 89.5888 38.56C89.0948 38.56 88.7091 38.7333 88.4318 39.08C88.1545 39.418 88.0158 39.9077 88.0158 40.549C88.0158 41.0603 88.1025 41.537 88.2758 41.979C88.4578 42.421 88.7091 42.7763 89.0298 43.045C89.3505 43.305 89.7231 43.435 90.1478 43.435ZM98.6441 43.5C98.6181 43.5 98.6051 43.474 98.6051 43.422C98.6051 43.37 98.6181 43.344 98.6441 43.344C98.9994 43.344 99.2291 43.2877 99.3331 43.175C99.4371 43.0623 99.4891 42.8197 99.4891 42.447V40.276C99.4891 39.7473 99.3894 39.3617 99.1901 39.119C98.9908 38.8763 98.6788 38.755 98.2541 38.755C97.9248 38.755 97.5868 38.8633 97.2401 39.08C96.9021 39.2967 96.6074 39.5957 96.3561 39.977L96.3041 39.821C96.7114 39.2837 97.1014 38.898 97.4741 38.664C97.8468 38.43 98.2238 38.313 98.6051 38.313C99.0818 38.313 99.4501 38.443 99.7101 38.703C99.9701 38.9543 100.1 39.3487 100.1 39.886V42.447C100.1 42.8197 100.148 43.0623 100.243 43.175C100.347 43.2877 100.581 43.344 100.945 43.344C100.971 43.344 100.984 43.37 100.984 43.422C100.984 43.474 100.971 43.5 100.945 43.5C100.798 43.5 100.624 43.4957 100.425 43.487C100.226 43.4783 100.018 43.474 99.8011 43.474C99.5844 43.474 99.3721 43.4783 99.1641 43.487C98.9648 43.4957 98.7914 43.5 98.6441 43.5ZM95.1471 43.5C95.1211 43.5 95.1081 43.474 95.1081 43.422C95.1081 43.37 95.1211 43.344 95.1471 43.344C95.5024 43.344 95.7321 43.2877 95.8361 43.175C95.9401 43.0623 95.9921 42.8197 95.9921 42.447V39.847C95.9921 39.5523 95.9574 39.34 95.8881 39.21C95.8188 39.0713 95.6974 39.002 95.5241 39.002C95.4374 39.002 95.3334 39.0193 95.2121 39.054C95.0908 39.0887 94.9521 39.1363 94.7961 39.197C94.7614 39.2057 94.7311 39.1883 94.7051 39.145C94.6878 39.1017 94.6964 39.0713 94.7311 39.054L96.1741 38.378C96.1914 38.3693 96.2131 38.365 96.2391 38.365C96.2998 38.365 96.3734 38.456 96.4601 38.638C96.5554 38.8113 96.6031 39.067 96.6031 39.405V42.447C96.6031 42.8197 96.6508 43.0623 96.7461 43.175C96.8501 43.2877 97.0841 43.344 97.4481 43.344C97.4741 43.344 97.4871 43.37 97.4871 43.422C97.4871 43.474 97.4741 43.5 97.4481 43.5C97.3008 43.5 97.1274 43.4957 96.9281 43.487C96.7288 43.4783 96.5208 43.474 96.3041 43.474C96.0874 43.474 95.8751 43.4783 95.6671 43.487C95.4678 43.4957 95.2944 43.5 95.1471 43.5ZM105.257 43.656C105.049 43.656 104.849 43.6213 104.659 43.552C104.477 43.4913 104.329 43.3873 104.217 43.24C104.104 43.084 104.048 42.876 104.048 42.616V39.522C104.048 39.3053 104.035 39.1493 104.009 39.054C103.983 38.95 103.922 38.885 103.827 38.859C103.731 38.8243 103.58 38.807 103.372 38.807C103.346 38.807 103.333 38.781 103.333 38.729C103.333 38.677 103.346 38.651 103.372 38.651C103.701 38.651 103.965 38.56 104.165 38.378C104.373 38.196 104.477 37.9663 104.477 37.689C104.477 37.663 104.507 37.65 104.568 37.65C104.637 37.65 104.672 37.663 104.672 37.689V42.174C104.672 42.538 104.758 42.811 104.932 42.993C105.114 43.1663 105.378 43.253 105.725 43.253C105.959 43.253 106.162 43.2183 106.336 43.149C106.518 43.071 106.665 42.9887 106.778 42.902C106.812 42.8847 106.843 42.8977 106.869 42.941C106.895 42.9757 106.89 43.006 106.856 43.032C106.535 43.2573 106.253 43.4177 106.011 43.513C105.768 43.6083 105.517 43.656 105.257 43.656ZM106.466 39.106C106.128 39.0193 105.803 38.9673 105.491 38.95C105.187 38.924 104.862 38.911 104.516 38.911V38.638C104.854 38.638 105.179 38.625 105.491 38.599C105.811 38.573 106.149 38.5427 106.505 38.508C106.531 38.508 106.552 38.5383 106.57 38.599C106.587 38.651 106.596 38.7203 106.596 38.807C106.596 38.8677 106.583 38.937 106.557 39.015C106.531 39.0843 106.5 39.1147 106.466 39.106ZM111.56 43.656C111.048 43.656 110.619 43.539 110.273 43.305C109.935 43.0623 109.679 42.7503 109.506 42.369C109.332 41.9877 109.246 41.5847 109.246 41.16C109.246 40.6313 109.367 40.159 109.61 39.743C109.852 39.3183 110.177 38.9847 110.585 38.742C111.001 38.4907 111.451 38.365 111.937 38.365C112.431 38.365 112.799 38.4993 113.042 38.768C113.284 39.0367 113.406 39.3963 113.406 39.847C113.406 39.9597 113.393 40.042 113.367 40.094C113.349 40.146 113.31 40.172 113.25 40.172H112.639C112.682 39.6347 112.595 39.2447 112.379 39.002C112.171 38.7507 111.885 38.625 111.521 38.625C111.035 38.625 110.658 38.8113 110.39 39.184C110.121 39.548 109.987 40.0507 109.987 40.692C109.987 41.1773 110.065 41.615 110.221 42.005C110.377 42.3863 110.606 42.6897 110.91 42.915C111.213 43.1317 111.581 43.24 112.015 43.24C112.318 43.24 112.565 43.1967 112.756 43.11C112.955 43.0147 113.146 42.9107 113.328 42.798C113.345 42.7807 113.367 42.7937 113.393 42.837C113.427 42.8717 113.436 42.902 113.419 42.928C113.115 43.188 112.808 43.3743 112.496 43.487C112.192 43.5997 111.88 43.656 111.56 43.656ZM109.818 40.185L109.805 40.029L112.769 39.977V40.172L109.818 40.185ZM116.841 39.314C116.841 39.548 116.898 39.7473 117.01 39.912C117.132 40.068 117.283 40.2023 117.465 40.315C117.656 40.419 117.851 40.523 118.05 40.627C118.276 40.731 118.488 40.848 118.687 40.978C118.887 41.0993 119.051 41.2467 119.181 41.42C119.311 41.5933 119.376 41.8187 119.376 42.096C119.376 42.3733 119.307 42.629 119.168 42.863C119.03 43.097 118.822 43.2877 118.544 43.435C118.276 43.5737 117.946 43.643 117.556 43.643C117.348 43.643 117.145 43.6127 116.945 43.552C116.746 43.5 116.542 43.396 116.334 43.24C116.317 43.2227 116.3 43.201 116.282 43.175C116.265 43.149 116.256 43.1187 116.256 43.084L116.23 42.148C116.23 42.122 116.252 42.109 116.295 42.109C116.347 42.1003 116.378 42.109 116.386 42.135C116.499 42.4297 116.629 42.6723 116.776 42.863C116.932 43.045 117.106 43.1793 117.296 43.266C117.487 43.3527 117.699 43.396 117.933 43.396C118.237 43.396 118.466 43.3267 118.622 43.188C118.787 43.0407 118.861 42.824 118.843 42.538C118.835 42.2867 118.77 42.083 118.648 41.927C118.527 41.771 118.375 41.641 118.193 41.537C118.011 41.433 117.821 41.3333 117.621 41.238C117.405 41.134 117.197 41.0257 116.997 40.913C116.807 40.7917 116.646 40.64 116.516 40.458C116.395 40.276 116.334 40.042 116.334 39.756C116.334 39.4267 116.421 39.158 116.594 38.95C116.768 38.7333 116.984 38.573 117.244 38.469C117.513 38.365 117.79 38.313 118.076 38.313C118.232 38.313 118.388 38.3303 118.544 38.365C118.7 38.391 118.852 38.4387 118.999 38.508C119.077 38.5427 119.116 38.5903 119.116 38.651C119.116 38.781 119.112 38.9197 119.103 39.067C119.095 39.2143 119.09 39.3747 119.09 39.548C119.09 39.5653 119.064 39.574 119.012 39.574C118.96 39.574 118.934 39.5653 118.934 39.548C118.934 39.3487 118.861 39.1753 118.713 39.028C118.575 38.8807 118.401 38.768 118.193 38.69C117.994 38.612 117.795 38.573 117.595 38.573C117.361 38.573 117.175 38.6337 117.036 38.755C116.906 38.8763 116.841 39.0627 116.841 39.314ZM122.718 39.314C122.718 39.548 122.774 39.7473 122.887 39.912C123.008 40.068 123.16 40.2023 123.342 40.315C123.532 40.419 123.727 40.523 123.927 40.627C124.152 40.731 124.364 40.848 124.564 40.978C124.763 41.0993 124.928 41.2467 125.058 41.42C125.188 41.5933 125.253 41.8187 125.253 42.096C125.253 42.3733 125.183 42.629 125.045 42.863C124.906 43.097 124.698 43.2877 124.421 43.435C124.152 43.5737 123.823 43.643 123.433 43.643C123.225 43.643 123.021 43.6127 122.822 43.552C122.622 43.5 122.419 43.396 122.211 43.24C122.193 43.2227 122.176 43.201 122.159 43.175C122.141 43.149 122.133 43.1187 122.133 43.084L122.107 42.148C122.107 42.122 122.128 42.109 122.172 42.109C122.224 42.1003 122.254 42.109 122.263 42.135C122.375 42.4297 122.505 42.6723 122.653 42.863C122.809 43.045 122.982 43.1793 123.173 43.266C123.363 43.3527 123.576 43.396 123.81 43.396C124.113 43.396 124.343 43.3267 124.499 43.188C124.663 43.0407 124.737 42.824 124.72 42.538C124.711 42.2867 124.646 42.083 124.525 41.927C124.403 41.771 124.252 41.641 124.07 41.537C123.888 41.433 123.697 41.3333 123.498 41.238C123.281 41.134 123.073 41.0257 122.874 40.913C122.683 40.7917 122.523 40.64 122.393 40.458C122.271 40.276 122.211 40.042 122.211 39.756C122.211 39.4267 122.297 39.158 122.471 38.95C122.644 38.7333 122.861 38.573 123.121 38.469C123.389 38.365 123.667 38.313 123.953 38.313C124.109 38.313 124.265 38.3303 124.421 38.365C124.577 38.391 124.728 38.4387 124.876 38.508C124.954 38.5427 124.993 38.5903 124.993 38.651C124.993 38.781 124.988 38.9197 124.98 39.067C124.971 39.2143 124.967 39.3747 124.967 39.548C124.967 39.5653 124.941 39.574 124.889 39.574C124.837 39.574 124.811 39.5653 124.811 39.548C124.811 39.3487 124.737 39.1753 124.59 39.028C124.451 38.8807 124.278 38.768 124.07 38.69C123.87 38.612 123.671 38.573 123.472 38.573C123.238 38.573 123.051 38.6337 122.913 38.755C122.783 38.8763 122.718 39.0627 122.718 39.314ZM130.412 43.669C129.901 43.669 129.455 43.5433 129.073 43.292C128.701 43.0407 128.41 42.707 128.202 42.291C128.003 41.8663 127.903 41.4113 127.903 40.926C127.903 40.4753 127.986 40.0853 128.15 39.756C128.315 39.4267 128.532 39.158 128.8 38.95C129.078 38.7333 129.377 38.573 129.697 38.469C130.018 38.365 130.334 38.313 130.646 38.313C131.166 38.313 131.613 38.443 131.985 38.703C132.358 38.963 132.644 39.2967 132.843 39.704C133.043 40.1113 133.142 40.5403 133.142 40.991C133.142 41.5457 133.017 42.0223 132.765 42.421C132.514 42.8197 132.18 43.1273 131.764 43.344C131.357 43.5607 130.906 43.669 130.412 43.669ZM130.776 43.435C131.262 43.435 131.652 43.2747 131.946 42.954C132.241 42.6247 132.388 42.083 132.388 41.329C132.388 40.8003 132.297 40.328 132.115 39.912C131.933 39.496 131.678 39.1667 131.348 38.924C131.028 38.6813 130.651 38.56 130.217 38.56C129.723 38.56 129.338 38.7333 129.06 39.08C128.783 39.418 128.644 39.9077 128.644 40.549C128.644 41.0603 128.731 41.537 128.904 41.979C129.086 42.421 129.338 42.7763 129.658 43.045C129.979 43.305 130.352 43.435 130.776 43.435ZM136.985 39.977L136.933 39.847C137.253 39.4483 137.513 39.145 137.713 38.937C137.921 38.7203 138.098 38.573 138.246 38.495C138.393 38.4083 138.536 38.365 138.675 38.365C138.857 38.365 139.034 38.4127 139.208 38.508C139.381 38.6033 139.468 38.7203 139.468 38.859C139.468 38.9457 139.433 39.0237 139.364 39.093C139.303 39.1623 139.212 39.197 139.091 39.197C138.987 39.197 138.896 39.1667 138.818 39.106C138.748 39.0453 138.67 38.989 138.584 38.937C138.497 38.8763 138.38 38.846 138.233 38.846C138.155 38.846 138.068 38.872 137.973 38.924C137.886 38.9673 137.765 39.0713 137.609 39.236C137.461 39.392 137.253 39.639 136.985 39.977ZM135.776 43.5C135.75 43.5 135.737 43.474 135.737 43.422C135.737 43.37 135.75 43.344 135.776 43.344C136.131 43.344 136.361 43.2877 136.465 43.175C136.569 43.0623 136.621 42.8197 136.621 42.447V39.847C136.621 39.5523 136.586 39.34 136.517 39.21C136.447 39.0713 136.326 39.002 136.153 39.002C136.066 39.002 135.962 39.0193 135.841 39.054C135.719 39.0887 135.581 39.1363 135.425 39.197C135.39 39.2057 135.36 39.1883 135.334 39.145C135.316 39.1017 135.325 39.0713 135.36 39.054L136.803 38.378C136.82 38.3693 136.842 38.365 136.868 38.365C136.928 38.365 137.002 38.456 137.089 38.638C137.184 38.8113 137.232 39.067 137.232 39.405V42.447C137.232 42.6983 137.262 42.889 137.323 43.019C137.383 43.149 137.505 43.2357 137.687 43.279C137.877 43.3223 138.159 43.344 138.532 43.344C138.558 43.344 138.571 43.37 138.571 43.422C138.571 43.474 138.558 43.5 138.532 43.5C138.324 43.5 138.081 43.4957 137.804 43.487C137.526 43.4783 137.236 43.474 136.933 43.474C136.716 43.474 136.504 43.4783 136.296 43.487C136.096 43.4957 135.923 43.5 135.776 43.5ZM142.163 43.5C142.146 43.5 142.137 43.474 142.137 43.422C142.137 43.37 142.146 43.344 142.163 43.344C142.519 43.344 142.748 43.2877 142.852 43.175C142.965 43.0623 143.021 42.8197 143.021 42.447V39.99C143.021 39.678 142.991 39.4527 142.93 39.314C142.87 39.1667 142.757 39.093 142.592 39.093C142.514 39.093 142.423 39.1103 142.319 39.145C142.224 39.171 142.107 39.2187 141.968 39.288C141.934 39.2967 141.903 39.2793 141.877 39.236C141.86 39.184 141.869 39.1493 141.903 39.132L143.515 38.378C143.541 38.3693 143.559 38.365 143.567 38.365C143.585 38.365 143.602 38.3737 143.619 38.391C143.645 38.4083 143.658 38.43 143.658 38.456C143.658 38.5167 143.654 38.6857 143.645 38.963C143.637 39.2317 143.632 39.5697 143.632 39.977V42.447C143.632 42.8197 143.68 43.0623 143.775 43.175C143.879 43.2877 144.113 43.344 144.477 43.344C144.503 43.344 144.516 43.37 144.516 43.422C144.516 43.474 144.503 43.5 144.477 43.5C144.33 43.5 144.157 43.4957 143.957 43.487C143.758 43.4783 143.546 43.474 143.32 43.474C143.104 43.474 142.896 43.4783 142.696 43.487C142.497 43.4957 142.319 43.5 142.163 43.5ZM143.216 36.792C143.052 36.792 142.922 36.7487 142.826 36.662C142.74 36.5753 142.696 36.454 142.696 36.298C142.696 36.142 142.74 36.0207 142.826 35.934C142.922 35.8473 143.052 35.804 143.216 35.804C143.372 35.804 143.494 35.8473 143.58 35.934C143.667 36.0207 143.71 36.142 143.71 36.298C143.71 36.6273 143.546 36.792 143.216 36.792ZM153.587 42.395C153.587 42.655 153.622 42.8543 153.691 42.993C153.769 43.123 153.925 43.214 154.159 43.266C154.393 43.318 154.744 43.344 155.212 43.344C155.238 43.344 155.251 43.37 155.251 43.422C155.251 43.474 155.238 43.5 155.212 43.5C154.935 43.5 154.632 43.4957 154.302 43.487C153.982 43.4783 153.631 43.474 153.249 43.474C152.972 43.474 152.703 43.4783 152.443 43.487C152.183 43.4957 151.949 43.5 151.741 43.5C151.724 43.5 151.715 43.474 151.715 43.422C151.715 43.37 151.724 43.344 151.741 43.344C152.071 43.344 152.318 43.3223 152.482 43.279C152.647 43.2357 152.755 43.149 152.807 43.019C152.868 42.889 152.898 42.6983 152.898 42.447V36.428C152.898 36.1767 152.868 35.9903 152.807 35.869C152.755 35.739 152.647 35.6523 152.482 35.609C152.318 35.557 152.071 35.531 151.741 35.531C151.724 35.531 151.715 35.505 151.715 35.453C151.715 35.401 151.724 35.375 151.741 35.375C151.949 35.375 152.179 35.3837 152.43 35.401C152.69 35.4097 152.959 35.414 153.236 35.414C153.462 35.414 153.735 35.401 154.055 35.375C154.376 35.349 154.71 35.336 155.056 35.336C155.533 35.336 155.966 35.4097 156.356 35.557C156.746 35.7043 157.054 35.934 157.279 36.246C157.513 36.558 157.63 36.9653 157.63 37.468C157.63 37.9273 157.544 38.3217 157.37 38.651C157.197 38.9803 156.967 39.2533 156.681 39.47C156.404 39.678 156.096 39.834 155.758 39.938C155.42 40.042 155.087 40.094 154.757 40.094C154.645 40.094 154.532 40.0897 154.419 40.081C154.315 40.0723 154.216 40.055 154.12 40.029C154.086 40.0203 154.073 39.99 154.081 39.938C154.099 39.8773 154.12 39.8513 154.146 39.86C154.224 39.8773 154.302 39.8903 154.38 39.899C154.467 39.9077 154.545 39.912 154.614 39.912C154.996 39.912 155.355 39.834 155.693 39.678C156.031 39.522 156.304 39.2837 156.512 38.963C156.72 38.6337 156.824 38.222 156.824 37.728C156.824 37.2513 156.729 36.8483 156.538 36.519C156.356 36.1897 156.109 35.9383 155.797 35.765C155.485 35.5917 155.139 35.505 154.757 35.505C154.445 35.505 154.203 35.5223 154.029 35.557C153.865 35.583 153.748 35.661 153.678 35.791C153.618 35.921 153.587 36.142 153.587 36.454V42.395ZM161.557 39.977L161.505 39.847C161.825 39.4483 162.085 39.145 162.285 38.937C162.493 38.7203 162.67 38.573 162.818 38.495C162.965 38.4083 163.108 38.365 163.247 38.365C163.429 38.365 163.606 38.4127 163.78 38.508C163.953 38.6033 164.04 38.7203 164.04 38.859C164.04 38.9457 164.005 39.0237 163.936 39.093C163.875 39.1623 163.784 39.197 163.663 39.197C163.559 39.197 163.468 39.1667 163.39 39.106C163.32 39.0453 163.242 38.989 163.156 38.937C163.069 38.8763 162.952 38.846 162.805 38.846C162.727 38.846 162.64 38.872 162.545 38.924C162.458 38.9673 162.337 39.0713 162.181 39.236C162.033 39.392 161.825 39.639 161.557 39.977ZM160.348 43.5C160.322 43.5 160.309 43.474 160.309 43.422C160.309 43.37 160.322 43.344 160.348 43.344C160.703 43.344 160.933 43.2877 161.037 43.175C161.141 43.0623 161.193 42.8197 161.193 42.447V39.847C161.193 39.5523 161.158 39.34 161.089 39.21C161.019 39.0713 160.898 39.002 160.725 39.002C160.638 39.002 160.534 39.0193 160.413 39.054C160.291 39.0887 160.153 39.1363 159.997 39.197C159.962 39.2057 159.932 39.1883 159.906 39.145C159.888 39.1017 159.897 39.0713 159.932 39.054L161.375 38.378C161.392 38.3693 161.414 38.365 161.44 38.365C161.5 38.365 161.574 38.456 161.661 38.638C161.756 38.8113 161.804 39.067 161.804 39.405V42.447C161.804 42.6983 161.834 42.889 161.895 43.019C161.955 43.149 162.077 43.2357 162.259 43.279C162.449 43.3223 162.731 43.344 163.104 43.344C163.13 43.344 163.143 43.37 163.143 43.422C163.143 43.474 163.13 43.5 163.104 43.5C162.896 43.5 162.653 43.4957 162.376 43.487C162.098 43.4783 161.808 43.474 161.505 43.474C161.288 43.474 161.076 43.4783 160.868 43.487C160.668 43.4957 160.495 43.5 160.348 43.5ZM168.637 43.656C168.126 43.656 167.697 43.539 167.35 43.305C167.012 43.0623 166.756 42.7503 166.583 42.369C166.41 41.9877 166.323 41.5847 166.323 41.16C166.323 40.6313 166.444 40.159 166.687 39.743C166.93 39.3183 167.255 38.9847 167.662 38.742C168.078 38.4907 168.529 38.365 169.014 38.365C169.508 38.365 169.876 38.4993 170.119 38.768C170.362 39.0367 170.483 39.3963 170.483 39.847C170.483 39.9597 170.47 40.042 170.444 40.094C170.427 40.146 170.388 40.172 170.327 40.172H169.716C169.759 39.6347 169.673 39.2447 169.456 39.002C169.248 38.7507 168.962 38.625 168.598 38.625C168.113 38.625 167.736 38.8113 167.467 39.184C167.198 39.548 167.064 40.0507 167.064 40.692C167.064 41.1773 167.142 41.615 167.298 42.005C167.454 42.3863 167.684 42.6897 167.987 42.915C168.29 43.1317 168.659 43.24 169.092 43.24C169.395 43.24 169.642 43.1967 169.833 43.11C170.032 43.0147 170.223 42.9107 170.405 42.798C170.422 42.7807 170.444 42.7937 170.47 42.837C170.505 42.8717 170.513 42.902 170.496 42.928C170.193 43.188 169.885 43.3743 169.573 43.487C169.27 43.5997 168.958 43.656 168.637 43.656ZM166.895 40.185L166.882 40.029L169.846 39.977V40.172L166.895 40.185ZM173.918 39.314C173.918 39.548 173.975 39.7473 174.087 39.912C174.209 40.068 174.36 40.2023 174.542 40.315C174.733 40.419 174.928 40.523 175.127 40.627C175.353 40.731 175.565 40.848 175.764 40.978C175.964 41.0993 176.128 41.2467 176.258 41.42C176.388 41.5933 176.453 41.8187 176.453 42.096C176.453 42.3733 176.384 42.629 176.245 42.863C176.107 43.097 175.899 43.2877 175.621 43.435C175.353 43.5737 175.023 43.643 174.633 43.643C174.425 43.643 174.222 43.6127 174.022 43.552C173.823 43.5 173.619 43.396 173.411 43.24C173.394 43.2227 173.377 43.201 173.359 43.175C173.342 43.149 173.333 43.1187 173.333 43.084L173.307 42.148C173.307 42.122 173.329 42.109 173.372 42.109C173.424 42.1003 173.455 42.109 173.463 42.135C173.576 42.4297 173.706 42.6723 173.853 42.863C174.009 43.045 174.183 43.1793 174.373 43.266C174.564 43.3527 174.776 43.396 175.01 43.396C175.314 43.396 175.543 43.3267 175.699 43.188C175.864 43.0407 175.938 42.824 175.92 42.538C175.912 42.2867 175.847 42.083 175.725 41.927C175.604 41.771 175.452 41.641 175.27 41.537C175.088 41.433 174.898 41.3333 174.698 41.238C174.482 41.134 174.274 41.0257 174.074 40.913C173.884 40.7917 173.723 40.64 173.593 40.458C173.472 40.276 173.411 40.042 173.411 39.756C173.411 39.4267 173.498 39.158 173.671 38.95C173.845 38.7333 174.061 38.573 174.321 38.469C174.59 38.365 174.867 38.313 175.153 38.313C175.309 38.313 175.465 38.3303 175.621 38.365C175.777 38.391 175.929 38.4387 176.076 38.508C176.154 38.5427 176.193 38.5903 176.193 38.651C176.193 38.781 176.189 38.9197 176.18 39.067C176.172 39.2143 176.167 39.3747 176.167 39.548C176.167 39.5653 176.141 39.574 176.089 39.574C176.037 39.574 176.011 39.5653 176.011 39.548C176.011 39.3487 175.938 39.1753 175.79 39.028C175.652 38.8807 175.478 38.768 175.27 38.69C175.071 38.612 174.872 38.573 174.672 38.573C174.438 38.573 174.252 38.6337 174.113 38.755C173.983 38.8763 173.918 39.0627 173.918 39.314ZM181.613 43.656C181.024 43.656 180.543 43.5303 180.17 43.279C179.806 43.019 179.537 42.694 179.364 42.304C179.191 41.9053 179.104 41.5023 179.104 41.095C179.104 40.6617 179.186 40.276 179.351 39.938C179.516 39.6 179.732 39.314 180.001 39.08C180.278 38.846 180.582 38.6683 180.911 38.547C181.24 38.4257 181.565 38.365 181.886 38.365C182.129 38.365 182.363 38.3997 182.588 38.469C182.813 38.5297 183 38.6163 183.147 38.729C183.294 38.8417 183.368 38.9673 183.368 39.106C183.368 39.21 183.333 39.301 183.264 39.379C183.203 39.4483 183.112 39.483 182.991 39.483C182.87 39.483 182.766 39.444 182.679 39.366C182.592 39.288 182.523 39.2057 182.471 39.119C182.367 38.9717 182.241 38.8547 182.094 38.768C181.955 38.6727 181.747 38.625 181.47 38.625C180.941 38.625 180.538 38.82 180.261 39.21C179.984 39.5913 179.845 40.094 179.845 40.718C179.845 41.16 179.923 41.576 180.079 41.966C180.235 42.3473 180.473 42.6593 180.794 42.902C181.123 43.136 181.548 43.253 182.068 43.253C182.293 43.253 182.523 43.2227 182.757 43.162C183 43.0927 183.216 42.9713 183.407 42.798C183.433 42.7807 183.459 42.7893 183.485 42.824C183.52 42.8587 183.524 42.8847 183.498 42.902C183.203 43.1707 182.904 43.3657 182.601 43.487C182.298 43.5997 181.968 43.656 181.613 43.656ZM185.828 43.5C185.802 43.5 185.789 43.474 185.789 43.422C185.789 43.37 185.802 43.344 185.828 43.344C186.183 43.344 186.413 43.2877 186.517 43.175C186.621 43.0623 186.673 42.8197 186.673 42.447V35.7C186.673 35.388 186.643 35.1627 186.582 35.024C186.521 34.8767 186.413 34.803 186.257 34.803C186.118 34.803 185.91 34.868 185.633 34.998C185.598 35.0153 185.568 35.0023 185.542 34.959C185.525 34.907 185.533 34.8723 185.568 34.855L187.167 34.075C187.176 34.075 187.18 34.075 187.18 34.075C187.18 34.075 187.184 34.075 187.193 34.075C187.219 34.075 187.241 34.0837 187.258 34.101C187.275 34.1183 187.284 34.14 187.284 34.166V42.447C187.284 42.8197 187.336 43.0623 187.44 43.175C187.544 43.2877 187.778 43.344 188.142 43.344C188.159 43.344 188.168 43.37 188.168 43.422C188.168 43.474 188.159 43.5 188.142 43.5C187.986 43.5 187.808 43.4957 187.609 43.487C187.418 43.4783 187.21 43.474 186.985 43.474C186.768 43.474 186.556 43.4783 186.348 43.487C186.149 43.4957 185.975 43.5 185.828 43.5ZM189.325 43.5C189.299 43.5 189.286 43.474 189.286 43.422C189.286 43.37 189.299 43.344 189.325 43.344C189.68 43.344 189.91 43.2877 190.014 43.175C190.118 43.0623 190.17 42.8197 190.17 42.447V40.328C190.17 39.2967 189.763 38.781 188.948 38.781C188.61 38.781 188.268 38.8937 187.921 39.119C187.583 39.3357 187.288 39.6303 187.037 40.003L186.985 39.847C187.392 39.3097 187.782 38.9283 188.155 38.703C188.528 38.469 188.909 38.352 189.299 38.352C189.767 38.352 190.131 38.482 190.391 38.742C190.651 38.9933 190.781 39.3877 190.781 39.925V42.447C190.781 42.8197 190.833 43.0623 190.937 43.175C191.041 43.2877 191.275 43.344 191.639 43.344C191.656 43.344 191.665 43.37 191.665 43.422C191.665 43.474 191.656 43.5 191.639 43.5C191.483 43.5 191.305 43.4957 191.106 43.487C190.915 43.4783 190.707 43.474 190.482 43.474C190.265 43.474 190.053 43.4783 189.845 43.487C189.646 43.4957 189.472 43.5 189.325 43.5ZM196.476 43.669C195.965 43.669 195.519 43.5433 195.137 43.292C194.765 43.0407 194.474 42.707 194.266 42.291C194.067 41.8663 193.967 41.4113 193.967 40.926C193.967 40.4753 194.05 40.0853 194.214 39.756C194.379 39.4267 194.596 39.158 194.864 38.95C195.142 38.7333 195.441 38.573 195.761 38.469C196.082 38.365 196.398 38.313 196.71 38.313C197.23 38.313 197.677 38.443 198.049 38.703C198.422 38.963 198.708 39.2967 198.907 39.704C199.107 40.1113 199.206 40.5403 199.206 40.991C199.206 41.5457 199.081 42.0223 198.829 42.421C198.578 42.8197 198.244 43.1273 197.828 43.344C197.421 43.5607 196.97 43.669 196.476 43.669ZM196.84 43.435C197.326 43.435 197.716 43.2747 198.01 42.954C198.305 42.6247 198.452 42.083 198.452 41.329C198.452 40.8003 198.361 40.328 198.179 39.912C197.997 39.496 197.742 39.1667 197.412 38.924C197.092 38.6813 196.715 38.56 196.281 38.56C195.787 38.56 195.402 38.7333 195.124 39.08C194.847 39.418 194.708 39.9077 194.708 40.549C194.708 41.0603 194.795 41.537 194.968 41.979C195.15 42.421 195.402 42.7763 195.722 43.045C196.043 43.305 196.416 43.435 196.84 43.435ZM204.232 43.669C203.72 43.669 203.274 43.5433 202.893 43.292C202.52 43.0407 202.23 42.707 202.022 42.291C201.822 41.8663 201.723 41.4113 201.723 40.926C201.723 40.4753 201.805 40.0853 201.97 39.756C202.134 39.4267 202.351 39.158 202.62 38.95C202.897 38.7333 203.196 38.573 203.517 38.469C203.837 38.365 204.154 38.313 204.466 38.313C204.986 38.313 205.432 38.443 205.805 38.703C206.177 38.963 206.463 39.2967 206.663 39.704C206.862 40.1113 206.962 40.5403 206.962 40.991C206.962 41.5457 206.836 42.0223 206.585 42.421C206.333 42.8197 206 43.1273 205.584 43.344C205.176 43.5607 204.726 43.669 204.232 43.669ZM204.596 43.435C205.081 43.435 205.471 43.2747 205.766 42.954C206.06 42.6247 206.208 42.083 206.208 41.329C206.208 40.8003 206.117 40.328 205.935 39.912C205.753 39.496 205.497 39.1667 205.168 38.924C204.847 38.6813 204.47 38.56 204.037 38.56C203.543 38.56 203.157 38.7333 202.88 39.08C202.602 39.418 202.464 39.9077 202.464 40.549C202.464 41.0603 202.55 41.537 202.724 41.979C202.906 42.421 203.157 42.7763 203.478 43.045C203.798 43.305 204.171 43.435 204.596 43.435ZM209.53 43.5C209.504 43.5 209.491 43.474 209.491 43.422C209.491 43.37 209.504 43.344 209.53 43.344C209.885 43.344 210.115 43.2877 210.219 43.175C210.323 43.0623 210.375 42.8197 210.375 42.447V35.7C210.375 35.388 210.345 35.1627 210.284 35.024C210.223 34.8767 210.115 34.803 209.959 34.803C209.82 34.803 209.612 34.868 209.335 34.998C209.3 35.0153 209.27 34.998 209.244 34.946C209.227 34.894 209.235 34.8637 209.27 34.855L210.869 34.088C210.886 34.0793 210.908 34.075 210.934 34.075C210.951 34.075 210.969 34.0837 210.986 34.101C211.012 34.1183 211.025 34.14 211.025 34.166V42.447C211.025 42.811 211.073 43.0537 211.168 43.175C211.272 43.2877 211.506 43.344 211.87 43.344C211.896 43.344 211.909 43.37 211.909 43.422C211.909 43.474 211.896 43.5 211.87 43.5C211.723 43.5 211.545 43.4957 211.337 43.487C211.138 43.4783 210.925 43.474 210.7 43.474C210.483 43.474 210.271 43.4783 210.063 43.487C209.855 43.4957 209.677 43.5 209.53 43.5Z" fill="white"/>
</svg>
