<svg width="135" height="135" viewBox="0 0 135 135" fill="none" xmlns="http://www.w3.org/2000/svg">
<path d="M66.9177 0C72.2679 0.213395 75.1329 7.31664 75.5104 11.8389C75.9628 17.2583 74.6021 23.1804 71.7848 27.833C70.6859 29.6478 69.4132 31.2169 68.0837 32.8457C69.5219 34.1284 70.3189 34.8365 71.9802 35.8594C74.519 30.6367 76.5468 27.2975 81.486 23.5566C85.7332 20.3399 92.9534 19.5175 95.4284 25.4053C97.8032 31.0556 92.46 37.1373 87.3444 38.9756C82.8211 40.6009 77.3866 40.323 72.943 38.3008C71.5759 44.2848 71.1353 49.4906 75.7907 54.1885C79.1853 48.7991 86.5213 43.2357 92.7878 41.5654C99.959 39.6544 107.361 46.3352 102.669 53.4775C100.257 57.1474 95.9787 59.2735 91.6921 60.0918C86.0602 61.167 80.8381 59.8869 76.0964 56.6602C72.1326 63.4028 71.6548 70.8524 77.3864 76.7188C81.3253 70.3241 87.0801 65.4364 94.5319 63.2676C102.241 61.0241 110.267 67.4786 105.637 75.3809C103.675 78.7301 98.4333 81.5076 94.6618 82.2861C88.4348 83.5716 83.1558 82.7712 77.8024 79.2822C69.3521 95.1539 72.9821 112.823 83.0768 126.962C83.7079 127.846 88.4456 133.679 88.4704 134.253C88.4837 134.58 88.4053 134.629 88.1989 134.856C87.9219 134.951 87.7031 135.081 87.4284 134.933C86.4515 134.403 85.264 132.721 84.5866 131.876C80.0743 126.248 76.2096 119.759 73.8581 112.893C70.9286 104.339 70.3881 94.5543 73.1003 85.8623C73.948 83.1461 75.1108 80.6852 76.3415 78.1318C72.3577 74.2373 70.8651 69.6102 71.5876 64.0557C72.0058 60.8422 73.172 58.4332 74.652 55.6182C69.4024 49.9483 69.5852 44.6915 71.3639 37.5547C69.9375 36.7484 68.6078 35.7809 67.4011 34.6709L66.8327 34.0791C65.2147 35.5377 64.3348 36.1501 62.5055 37.2803C64.5296 43.7827 64.5752 50.3696 59.3434 55.3066C63.7277 63.3045 64.4688 71.2905 57.6081 78.1104C58.1382 79.3094 58.8301 80.5498 59.3845 81.7793C60.4123 84.1012 61.2014 86.5224 61.7399 89.0049C64.5225 101.759 60.8636 114.71 53.9684 125.5C52.8826 127.199 47.7843 134.866 46.1813 134.969C45.863 134.989 45.7745 134.863 45.571 134.659C45.3177 133.869 45.9534 133.233 46.4518 132.67C57.9302 119.691 64.8747 101.178 58.5348 84.1865C57.8835 82.4405 57.0527 80.8113 56.1833 79.0967C48.6031 84.6132 35.0775 83.6765 28.9548 76.2607C26.0233 72.7101 26.3675 67.523 30.1325 64.7168C32.3567 63.0592 35.2625 62.5452 37.9704 62.9814C44.2905 63.9989 49.836 68.0649 53.9069 72.8721C54.9646 74.1252 55.6905 75.3006 56.6569 76.5771C62.5954 70.621 61.7172 63.4416 58.0173 56.5283C50.5834 62.1848 38.1057 61.7218 31.9938 54.21C26.726 47.6707 32.8135 39.8619 40.4489 41.2764C47.8847 42.6539 53.9565 48.1276 58.3571 53.9629C59.2037 53.1416 59.9246 52.1994 60.4958 51.166C62.7647 47.0677 62.2237 42.3468 60.9938 38.0361C53.7499 42.1038 42.3987 39.9159 38.822 31.8037C37.1213 27.9466 38.1757 23.1156 42.4548 21.5684C49.6406 18.97 56.8353 25.678 60.0671 31.4854C60.8238 32.842 61.369 34.1879 61.9294 35.6279C63.2811 34.8525 64.5302 33.9096 65.6462 32.8203C61.8906 28.2959 59.4741 22.805 58.6725 16.9717C58.3568 14.522 58.3265 12.0132 58.862 9.59668C59.8138 5.30162 62.0821 0.54958 66.9177 0ZM97.8063 64.6113C89.5425 65.0777 83.2079 71.3647 78.6511 77.7588C81.2904 79.4576 83.3746 80.3209 86.4694 80.8291C91.808 81.5308 97.2528 80.4589 101.64 77.1523C104.716 74.8342 106.796 70.7704 103.947 67.2754C102.589 65.6093 100.507 64.7893 98.3845 64.6416C98.192 64.6273 97.999 64.6172 97.8063 64.6113ZM36.1296 64.6084C33.919 64.7536 31.7323 65.3336 30.1852 67.0469C29.1761 68.1502 28.6573 69.6183 28.7487 71.1133C28.8603 73.2441 30.2309 75.2807 31.8054 76.6328C35.7859 80.0523 41.2978 81.1802 46.405 80.7705C46.8602 80.7312 47.3156 80.6844 47.7692 80.6289C50.4865 80.0828 52.9326 79.3217 55.2653 77.748C51.2166 71.8027 45.6907 66.2139 38.3268 64.8398C37.6015 64.7069 36.8666 64.6295 36.1296 64.6084ZM38.5837 42.9551C30.823 43.4906 29.6828 50.7746 35.3884 55.124C38.9934 57.872 43.8553 59.0641 48.3454 58.4688C48.9485 58.3903 49.5496 58.292 50.1462 58.1738C52.9687 57.4083 54.6409 56.7782 57.0739 55.0732C53.5956 50.567 50.1024 47.0776 44.8542 44.5645C43.4533 43.8937 41.724 43.2313 40.1774 43.0244C39.6497 42.95 39.1159 42.9266 38.5837 42.9551ZM94.9391 43.0723C88.6588 43.6657 82.2962 48.7684 78.3845 53.4932C77.9149 54.0658 77.451 54.6429 76.9929 55.2246C79.7633 57.0295 81.7612 57.9337 85.0378 58.4355C91.0217 59.1924 99.2722 57.3643 101.871 51.0371C103.687 46.614 99.4004 42.7282 94.9391 43.0723ZM92.7204 24.4443C91.4737 23.1718 89.3131 22.5601 87.5573 22.8066C80.9338 24.0149 76.0447 30.9263 73.5593 36.7393C76.1487 37.7378 77.5206 38.0361 80.2927 38.2227C84.4894 38.2332 88.201 37.466 91.3112 34.4082C93.8514 31.9112 95.5632 27.3963 92.7204 24.4443ZM59.4177 34.21C56.8867 28.6674 51.3045 22.314 44.6393 22.8018C43.1559 23.1028 41.6502 23.7383 40.7985 25.0234C38.0194 29.2183 41.5003 33.9949 45.0759 36.1797C48.4445 38.2383 51.9267 38.5214 55.6608 37.9697C57.2629 37.6575 58.9659 37.2172 60.4304 36.4746C60.0915 35.7221 59.7598 34.9597 59.4177 34.21ZM66.6022 1.85547C64.7817 2.24099 63.4744 3.411 62.487 4.94434C59.9683 8.85623 59.7552 14.109 60.7175 18.5342C61.7448 23.2167 63.7854 27.6152 66.695 31.418L66.9098 31.4863L67.1384 31.248C71.7268 26.0808 74.2414 19.596 73.8464 12.6396C73.6274 8.78428 71.2926 1.82481 66.6022 1.85547Z" fill="white"/>
</svg>
