<svg width="114" height="80" viewBox="0 0 114 80" fill="none" xmlns="http://www.w3.org/2000/svg">
<path d="M64.1805 32.227L43.6652 11.6008C42.6566 10.5813 41.286 10.0055 39.8547 10C38.4233 9.9946 37.0484 10.5599 36.0322 11.5717L36.0033 11.6008L11.5908 36.1486C10.5735 37.1684 10.0014 38.5518 10 39.9949C9.99865 41.4379 10.5682 42.8225 11.5835 43.8441L11.5908 43.8538L36.0057 68.3992C37.0142 69.4187 38.3848 69.9945 39.8162 70C41.2475 70.0054 42.6225 69.4401 43.6387 68.4283L43.6676 68.3992L64.2528 47.7004C65.5229 46.4206 68.3742 46.394 69.6467 47.6714L80.2442 58.3256C81.2531 59.3448 82.6239 59.9201 84.0552 59.9251C85.4866 59.9301 86.8613 59.3643 87.8772 58.3522L87.9037 58.328L102.408 43.745C102.912 43.24 103.312 42.6403 103.585 41.9801C103.858 41.32 103.999 40.6123 104 39.8975C104.001 39.1827 103.861 38.4747 103.589 37.814C103.317 37.1534 102.918 36.5529 102.415 36.047L102.408 36.0397L87.9037 21.4591C86.8952 20.4396 85.5245 19.8638 84.0932 19.8584C82.6618 19.8529 81.2869 20.4182 80.2707 21.4301L80.2418 21.4591L69.5383 32.2222C68.2753 33.4923 65.4458 33.4971 64.1829 32.227H64.1805Z" stroke="#857765" stroke-linecap="round" stroke-linejoin="round"/>
</svg>
