<svg width="16" height="16" viewBox="0 0 16 16" fill="none" xmlns="http://www.w3.org/2000/svg">
<path fill-rule="evenodd" clip-rule="evenodd" d="M7.38663 1.36326C6.1373 1.47326 4.90463 1.96593 3.86663 2.76926C3.5753 2.99526 2.9953 3.57526 2.7693 3.8666C1.5693 5.41726 1.0993 7.32993 1.45196 9.2306C1.6453 10.2746 2.0913 11.2573 2.7693 12.1333C2.9953 12.4246 3.5753 13.0046 3.86663 13.2306C5.49396 14.4899 7.50196 14.9413 9.4933 14.4939C11.1513 14.1213 12.6613 13.0646 13.59 11.6266C14.1273 10.7953 14.4453 9.94193 14.604 8.9066C14.6693 8.47926 14.6693 7.5206 14.604 7.09326C14.414 5.8546 13.98 4.8346 13.2306 3.8666C13.0046 3.57526 12.4246 2.99526 12.1333 2.76926C10.7553 1.70326 9.0973 1.21193 7.38663 1.36326ZM8.55463 2.6946C9.58115 2.80937 10.554 3.21326 11.36 3.85926C11.596 4.04993 12.0446 4.50726 12.2173 4.73326C12.9357 5.67126 13.3276 6.81846 13.3333 7.99993C13.3276 9.22266 12.9071 10.4073 12.1406 11.3599C11.95 11.5959 11.4926 12.0446 11.2666 12.2173C10.3286 12.9357 9.18144 13.3276 7.99996 13.3333C6.81849 13.3276 5.67129 12.9357 4.7333 12.2173C4.5073 12.0446 4.04996 11.5959 3.8593 11.3599C3.22197 10.5744 2.82151 9.62359 2.70475 8.61878C2.58799 7.61398 2.75976 6.59669 3.19996 5.68593C3.44133 5.17021 3.77044 4.70034 4.17263 4.29726C4.60444 3.8416 5.11685 3.46979 5.68396 3.2006C6.57557 2.76948 7.56935 2.59431 8.55463 2.6946ZM7.78196 4.04193C7.68822 4.07495 7.60367 4.12979 7.5353 4.20193C7.3253 4.41193 7.33063 4.35193 7.3393 6.38926C7.34596 8.07793 7.3493 8.17926 7.3973 8.27993C7.43063 8.34926 7.82996 8.76926 8.54396 9.48393C9.59263 10.5346 9.64596 10.5839 9.78463 10.6239C9.9653 10.6773 10.0346 10.6773 10.2066 10.6259C10.3926 10.5706 10.5706 10.3926 10.626 10.2066C10.6773 10.0339 10.6773 9.9646 10.624 9.7846C10.5833 9.64726 10.5326 9.59126 9.62396 8.6786L8.66663 7.71793V6.15726C8.66663 4.3746 8.66996 4.40726 8.46463 4.20193C8.27863 4.01593 8.04463 3.96126 7.78196 4.04193Z" fill="#DCDCDC"/>
</svg>
