<svg width="128" height="80" viewBox="0 0 128 80" fill="none" xmlns="http://www.w3.org/2000/svg">
<path fill-rule="evenodd" clip-rule="evenodd" d="M43.5362 10.3409C45.2563 9.71395 47.1595 9.97999 49.087 10.9073C51.0124 11.8337 53.0021 13.4366 54.9444 15.5626C58.033 18.9431 61.0469 23.6941 63.5372 29.3067C66.0273 23.6967 69.0405 18.9478 72.128 15.5685C74.0704 13.4425 76.06 11.8395 77.9854 10.9132C79.9127 9.98603 81.8153 9.7201 83.5352 10.3468C85.2553 10.9737 86.5426 12.4025 87.4239 14.3536C88.3043 16.3027 88.7996 18.8115 88.9229 21.6905C89.1579 27.1748 88.0479 34.0964 85.5636 41.2892C92.509 38.1784 99.3058 36.4667 104.787 36.2227C107.662 36.0949 110.201 36.3688 112.217 37.0772C114.234 37.7864 115.767 38.9461 116.54 40.6065C117.314 42.2674 117.217 44.1896 116.462 46.1935C115.708 48.195 114.286 50.3184 112.34 52.4415C108.447 56.6897 102.386 61.0115 95.0851 64.421C87.7839 67.8304 80.5824 69.7022 74.8302 69.9581C71.9554 70.086 69.4162 69.812 67.4005 69.1036C65.7284 68.5159 64.3909 67.6172 63.5411 66.3819C62.6918 67.6228 61.3529 68.5258 59.6759 69.1153C57.6602 69.8237 55.121 70.0977 52.2462 69.9698C46.4939 69.7139 39.2925 67.8422 31.9913 64.4327C24.6901 61.0232 18.6296 56.7015 14.7364 52.4532C12.7908 50.3301 11.3681 48.2068 10.6143 46.2052C9.85985 44.2014 9.76206 42.28 10.5352 40.6192C11.3087 38.9584 12.8416 37.7982 14.8595 37.089C16.875 36.3806 19.4136 36.1066 22.2882 36.2345C27.7702 36.4784 34.5683 38.1904 41.5147 41.3018C39.026 34.1025 37.9145 27.1736 38.1495 21.6847C38.2728 18.8059 38.7673 16.2968 39.6476 14.3477C40.5288 12.3967 41.8163 10.968 43.5362 10.3409ZM22.2442 37.2335C19.4475 37.1091 17.047 37.3812 15.1915 38.0333C13.3381 38.6847 12.0668 39.6996 11.4415 41.0421C10.8165 42.3847 10.8569 44.0122 11.5499 45.8526C12.2438 47.6953 13.5789 49.7118 15.4718 51.7774C19.2564 55.9072 25.2012 60.1576 32.4132 63.5255C39.6254 66.8934 46.6982 68.722 52.2901 68.9708C55.0871 69.0952 57.4882 68.8231 59.3438 68.171C60.7119 67.6901 61.761 67.0101 62.4688 66.1476C61.0947 66.3153 59.6357 65.9961 58.1622 65.2872C56.2368 64.3608 54.2471 62.7569 52.3048 60.631C48.4594 56.422 44.7287 50.0893 41.9815 42.6134C34.8177 39.2869 27.8001 37.4807 22.2442 37.2335ZM111.885 38.0216C110.029 37.3695 107.629 37.0974 104.832 37.2218C99.2768 37.4689 92.2599 39.2749 85.0968 42.6007C82.3489 50.0847 78.6162 56.4244 74.7677 60.6368C72.8252 62.7629 70.8358 64.3667 68.9102 65.2931C67.444 65.9984 65.9922 66.3184 64.6241 66.1563C65.3318 67.0092 66.3754 67.6823 67.7325 68.1593C69.5881 68.8114 71.9892 69.0835 74.7862 68.9591C80.3781 68.7103 87.4502 66.8815 94.6622 63.5138C101.874 60.1459 107.82 55.8956 111.605 51.7657C113.497 49.7001 114.833 47.6835 115.526 45.8409C116.219 44.0005 116.26 42.373 115.635 41.0304C115.01 39.6878 113.738 38.673 111.885 38.0216ZM83.795 43.2208C77.7659 46.1708 72.6927 49.7225 69.129 53.255C69.1265 53.6808 69.1182 54.0996 69.1007 54.5099C68.9773 57.3885 68.4819 59.8968 67.6017 61.8458C66.9546 63.2783 66.0866 64.427 64.9913 65.1856C66.0596 65.2567 67.2295 64.9917 68.4767 64.3917C70.2493 63.5388 72.1394 62.0307 74.0294 59.962C77.6069 56.0463 81.121 50.1887 83.795 43.2208ZM43.2833 43.2345C45.9564 50.194 49.4688 56.044 53.0431 59.9561C54.9331 62.0248 56.8231 63.533 58.5958 64.3858C59.8365 64.9827 61.0007 65.249 62.0645 65.1817C60.9767 64.423 60.1148 63.2773 59.4708 61.8517C58.5906 59.9027 58.0961 57.3943 57.9727 54.5157C57.9552 54.1063 57.946 53.6887 57.9434 53.2638C54.3804 49.7329 49.3095 46.1834 43.2833 43.2345ZM58.9718 54.4727C59.0918 57.274 59.5715 59.6461 60.3819 61.4405C60.9829 62.771 61.7554 63.7633 62.6817 64.3936C62.4116 63.1537 62.5435 61.8066 63.0059 60.4122C62.9985 60.3922 62.992 60.3717 62.9845 60.3517C62.2906 58.509 60.9555 56.4925 59.0626 54.4268C59.0308 54.3922 58.998 54.358 58.9659 54.3233C58.9678 54.3733 58.9696 54.4231 58.9718 54.4727ZM68.0138 54.4142C66.1207 56.4799 64.7848 58.4972 64.0909 60.3399C64.0821 60.3633 64.0741 60.3869 64.0655 60.4102C64.5286 61.8003 64.6625 63.1436 64.3985 64.381C65.321 63.7503 66.0914 62.7608 66.6905 61.4347C67.5009 59.6402 67.9807 57.2681 68.1007 54.4669C68.1028 54.4163 68.1036 54.3654 68.1056 54.3145C68.0748 54.3478 68.0442 54.3809 68.0138 54.4142ZM63.5372 31.8712C63.2336 32.6236 62.9395 33.3898 62.6563 34.169C60.1907 40.9531 58.9707 47.5127 58.9415 52.8507C59.2376 53.1509 59.5241 53.4502 59.7989 53.7501C61.453 55.555 62.7269 57.3615 63.5352 59.0919C64.3433 57.3579 65.6196 55.5474 67.2774 53.7384C67.5507 53.4401 67.8346 53.1415 68.129 52.8429C68.0995 47.5052 66.8815 40.9465 64.4161 34.1632C64.1336 33.3859 63.8399 32.6217 63.5372 31.8712ZM48.6534 11.8087C46.8827 10.9568 45.2677 10.7748 43.878 11.2813C42.4885 11.7879 41.3682 12.9666 40.5587 14.7589C39.7481 16.5534 39.2685 18.9253 39.1485 21.7267C38.9102 27.2906 40.096 34.4477 42.7804 41.8839C48.9154 44.776 54.1602 48.3094 57.96 51.8927C58.1198 46.6027 59.3634 40.3001 61.7159 33.8272C62.1207 32.7136 62.5485 31.625 62.9942 30.5645C60.4698 24.6583 57.3623 19.693 54.2061 16.2384C52.3161 14.1696 50.4261 12.6616 48.6534 11.8087ZM83.1944 11.2872C81.8048 10.7808 80.1896 10.9627 78.419 11.8145C76.6463 12.6674 74.7555 14.1754 72.8653 16.2442C69.7104 19.6976 66.6031 24.6603 64.0792 30.5636C64.5242 31.6226 64.9514 32.7094 65.3556 33.8214C67.7076 40.2928 68.952 46.5937 69.1124 51.8829C72.913 48.2982 78.1603 44.7633 84.2979 41.8702C86.9774 34.4409 88.162 27.2917 87.9239 21.7325C87.8039 18.9312 87.3243 16.5592 86.5138 14.7647C85.7042 12.9727 84.5838 11.7938 83.1944 11.2872Z" fill="#857765"/>
</svg>
