<svg width="16" height="16" viewBox="0 0 16 16" fill="none" xmlns="http://www.w3.org/2000/svg">
<path fill-rule="evenodd" clip-rule="evenodd" d="M7.46935 1.36206C5.19068 1.62006 3.37402 3.37606 3.05335 5.63006C3.00335 5.98539 3.00335 6.65539 3.05402 7.01072C3.17935 7.89406 3.56735 8.77806 4.19202 9.60472C4.88735 10.5247 5.91735 11.4314 7.06135 12.1314C7.57202 12.4441 7.62935 12.4641 8.00002 12.4654C8.36535 12.4661 8.41802 12.4474 8.94668 12.1254C10.376 11.2561 11.604 10.0674 12.2713 8.90672C12.7673 8.04539 12.986 7.25472 12.986 6.32006C12.986 5.50672 12.8293 4.83006 12.482 4.13672C12.2027 3.58072 11.948 3.22672 11.5213 2.79872C10.7971 2.07109 9.8649 1.58612 8.85335 1.41072C8.49602 1.34872 7.80402 1.32406 7.46935 1.36206ZM8.52002 2.70606C9.84668 2.89872 10.9973 3.83206 11.4394 5.07339C11.6 5.52472 11.6573 5.85139 11.6573 6.32006C11.658 7.44406 11.1453 8.48539 10.0553 9.57472C9.52269 10.1077 8.92904 10.5761 8.28668 10.9701L8.00002 11.1474L7.71335 10.9701C6.61668 10.2927 5.64268 9.39139 5.04402 8.50006C4.72868 8.03139 4.47535 7.41539 4.38602 6.90206C4.33535 6.61339 4.32935 6.07206 4.37268 5.80006C4.46535 5.22472 4.64668 4.76339 4.98202 4.25339C5.15468 3.99006 5.66935 3.48206 5.95135 3.29672C6.73802 2.77872 7.62068 2.57606 8.52002 2.70606ZM7.52868 4.38806C6.96202 4.51272 6.44735 4.93939 6.18802 5.50072C6.04668 5.80606 6.01402 5.96272 6.01402 6.33339C6.01402 6.70406 6.04668 6.86072 6.18802 7.16606C6.45202 7.73739 6.96535 8.15806 7.54868 8.28072C7.78935 8.33139 8.21068 8.33139 8.45135 8.28072C9.15335 8.13272 9.77002 7.52406 9.95002 6.80006C9.99735 6.60939 9.99735 6.05739 9.95002 5.86672C9.77002 5.14272 9.15335 4.53406 8.45135 4.38606C8.22135 4.33806 7.75335 4.33872 7.52868 4.38806ZM8.23668 5.71272C8.36602 5.75139 8.53135 5.91139 8.60402 6.06672C8.64454 6.1498 8.66555 6.24103 8.66543 6.33347C8.66532 6.4259 8.64408 6.51708 8.60335 6.60006C8.48268 6.85406 8.27002 6.99206 8.00002 6.99206C7.73002 6.99206 7.51735 6.85406 7.39668 6.60006C7.34095 6.47984 7.32366 6.34536 7.34716 6.21496C7.37067 6.08456 7.43382 5.96458 7.52802 5.87139C7.71402 5.67739 7.94802 5.62472 8.23668 5.71272ZM4.23668 11.1721C3.29402 11.4894 2.78335 11.9234 2.68602 12.4914C2.55268 13.2701 3.20802 13.8827 4.58202 14.2641C5.56602 14.5374 6.56735 14.6507 8.00002 14.6507C9.18002 14.6507 9.86735 14.5934 10.7247 14.4247C12.34 14.1074 13.186 13.5901 13.314 12.8427C13.3907 12.3961 13.1787 11.9554 12.7367 11.6421C12.3987 11.4021 11.5974 11.0681 11.358 11.0674C11.062 11.0661 10.7867 11.2587 10.7087 11.5227C10.6553 11.7014 10.656 11.7987 10.7107 11.9601C10.7847 12.1767 10.9267 12.2927 11.2587 12.4074C11.6273 12.5347 11.84 12.6294 11.84 12.6667C11.84 12.7014 11.6193 12.8027 11.3413 12.8961C10.8367 13.0654 10.1047 13.2061 9.32002 13.2847C9.10535 13.3061 8.60335 13.3194 8.00002 13.3194C7.39668 13.3194 6.89468 13.3061 6.68002 13.2847C5.89535 13.2061 5.16335 13.0654 4.65868 12.8961C4.38602 12.8047 4.16002 12.7014 4.16002 12.6687C4.16002 12.6274 4.32202 12.5534 4.69335 12.4241C5.09002 12.2861 5.22135 12.1807 5.29135 11.9441C5.34402 11.7681 5.34402 11.6987 5.29135 11.5227C5.21335 11.2587 4.93802 11.0661 4.64202 11.0674C4.58935 11.0674 4.40735 11.1147 4.23668 11.1721Z" fill="#DCDCDC"/>
</svg>
