<svg width="24" height="24" viewBox="0 0 24 24" fill="none" xmlns="http://www.w3.org/2000/svg">
<path fill-rule="evenodd" clip-rule="evenodd" d="M5.719 2.19806C5.334 2.26806 4.579 2.68306 4.017 3.13506C3.062 3.90206 2.369 4.98006 2.03 6.22606C1.906 6.68006 1.901 6.73006 1.903 7.42006C1.907 8.88206 2.308 10.4291 3.149 12.2201C4.813 15.7681 8.213 19.1651 11.786 20.8511C13.459 21.6401 14.971 22.0521 16.4 22.1071C17.278 22.1411 17.996 21.9821 18.86 21.5621C20.123 20.9481 21.132 19.9091 21.669 18.6701C21.789 18.3941 21.811 18.2971 21.812 18.0421C21.8146 17.8725 21.7928 17.7034 21.747 17.5401C21.557 16.9761 20.302 15.7061 18.942 14.7011C18.229 14.1751 17.193 13.4571 17.018 13.3681C16.736 13.2356 16.4206 13.1913 16.113 13.2411C15.679 13.3201 15.519 13.4331 14.693 14.2501L13.925 15.0091L13.432 14.7521C11.584 13.7861 10.233 12.4361 9.255 10.5781L8.991 10.0751L9.756 9.30106C10.607 8.44006 10.706 8.29106 10.76 7.79706C10.795 7.47806 10.757 7.23006 10.636 6.99106C10.468 6.65906 9.287 4.97506 8.764 4.32006C8.095 3.48406 7.036 2.50306 6.581 2.29606C6.3076 2.1869 6.00993 2.15305 5.719 2.19806ZM6.215 4.50506C6.808 5.05106 7.379 5.74606 8.177 6.89606L8.646 7.57106L7.907 8.31606C7.023 9.20706 6.954 9.31606 6.928 9.86306C6.912 10.2151 6.916 10.2391 7.082 10.6551C7.592 11.9351 8.652 13.5021 9.686 14.5021C10.688 15.4701 11.975 16.3321 13.216 16.8631C13.697 17.0691 13.944 17.1171 14.29 17.0711C14.7 17.0171 14.878 16.8921 15.683 16.0941L16.427 15.3561L17.128 15.8551C18.237 16.6451 18.896 17.1951 19.498 17.8321L19.736 18.0841L19.667 18.2121C19.539 18.4501 19.203 18.8681 18.95 19.1051C18.312 19.7021 17.486 20.0731 16.715 20.1101C15.46 20.1711 13.4 19.5371 11.7 18.5671C9.288 17.1921 6.808 14.7121 5.433 12.3001C4.456 10.5881 3.83 8.54806 3.891 7.28006C3.931 6.45406 4.313 5.64506 4.978 4.97606C5.292 4.66106 5.804 4.28006 5.914 4.28006C5.945 4.28006 6.08 4.38106 6.215 4.50506Z" fill="#59702F"/>
</svg>
