<svg width="24" height="24" viewBox="0 0 24 24" fill="none" xmlns="http://www.w3.org/2000/svg">
<path fill-rule="evenodd" clip-rule="evenodd" d="M4.47703 3.07291C3.98803 3.20091 3.54603 3.54291 3.26503 4.01391C2.98403 4.48191 3.00003 3.99991 3.00203 12.0279C3.00503 20.0959 2.98503 19.5259 3.28103 20.0169C3.44803 20.2939 3.78703 20.6179 4.07103 20.7719C4.43203 20.9669 4.69903 20.9989 6.00003 20.9989C7.23903 20.9989 7.55503 20.9669 7.86003 20.8099C8.00603 20.7349 8.00803 20.7359 8.19303 20.8239C8.29603 20.8729 8.48703 20.9319 8.61703 20.9559C8.78103 20.9859 10.462 20.9999 14.017 20.9989C19.643 20.9989 19.496 21.0039 19.931 20.7719C20.199 20.6289 20.629 20.1989 20.772 19.9309C21.008 19.4899 20.999 19.7819 20.999 12.4999C20.999 5.21491 21.007 5.50591 20.772 5.07091C20.5851 4.75251 20.3266 4.48203 20.017 4.28091C19.533 3.98891 19.866 4.00491 13.993 4.00191L8.72703 3.99991L8.64603 3.86991C8.42403 3.51391 7.91503 3.16191 7.47803 3.06191C7.06403 2.96791 4.84903 2.97591 4.47703 3.07291ZM7.00003 11.9999V18.9999H5.00003V4.99991H7.00003V11.9999ZM19 12.4999V18.9999H9.00003V5.99991H19V12.4999ZM11.174 7.04091C10.754 7.12591 10.33 7.47591 10.132 7.89991L10.02 8.13991V10.8599L10.133 11.1039C10.276 11.4129 10.585 11.7209 10.9 11.8679L11.14 11.9799H16.86L17.104 11.8669C17.413 11.7239 17.721 11.4149 17.868 11.0999L17.98 10.8599V8.13991L17.868 7.89991C17.7039 7.56773 17.4356 7.29837 17.104 7.13291L16.86 7.01991L14.1 7.01391C12.582 7.00991 11.265 7.02191 11.174 7.04091ZM16 9.49991V9.99991H12V8.99991H16V9.49991ZM11.673 13.0629C11.402 13.1459 11.139 13.4219 11.056 13.7099C10.862 14.3739 11.319 14.9969 12 14.9989C12.885 15.0009 13.325 13.9319 12.697 13.3039C12.418 13.0239 12.067 12.9419 11.673 13.0629ZM15.673 13.0629C15.5338 13.112 15.4081 13.1932 15.306 13.2999C14.672 13.9339 15.106 14.9969 16 14.9989C16.885 15.0009 17.325 13.9319 16.697 13.3039C16.418 13.0239 16.067 12.9419 15.673 13.0629ZM11.673 16.0629C11.402 16.1459 11.139 16.4219 11.056 16.7099C10.862 17.3739 11.319 17.9969 12 17.9989C12.885 18.0009 13.325 16.9319 12.697 16.3039C12.418 16.0239 12.067 15.9419 11.673 16.0629ZM15.673 16.0629C15.5338 16.112 15.4081 16.1932 15.306 16.2999C14.672 16.9339 15.106 17.9969 16 17.9989C16.885 18.0009 17.325 16.9319 16.697 16.3039C16.418 16.0239 16.067 15.9419 15.673 16.0629Z" fill="#59702F"/>
</svg>
