<svg width="84" height="80" viewBox="0 0 84 80" fill="none" xmlns="http://www.w3.org/2000/svg">
<path d="M25.1102 22.07C27.1501 22.07 28.8039 20.0851 28.8039 17.6365C28.8039 15.188 27.1501 13.2031 25.1102 13.2031C23.0702 13.2031 21.4164 15.188 21.4164 17.6365C21.4164 20.0851 23.0702 22.07 25.1102 22.07Z" stroke="#857765" stroke-width="1.2" stroke-linecap="round" stroke-linejoin="round"/>
<path d="M50.041 23.5945C52.9788 23.5945 55.3604 20.5513 55.3604 16.7973C55.3604 13.0432 52.9788 10 50.041 10C47.1031 10 44.7215 13.0432 44.7215 16.7973C44.7215 20.5513 47.1031 23.5945 50.041 23.5945Z" stroke="#857765" stroke-width="1.2" stroke-linecap="round" stroke-linejoin="round"/>
<path d="M12.7649 32.5589C10.1131 36.0967 9.70113 38.4924 10.164 42.5965C10.6285 46.7006 11.9886 52.378 18.5091 58.1763C25.0296 63.9746 36.7073 69.8969 48.2036 69.9987C59.7 70.1005 71.0102 64.3834 72.9509 56.094C74.8916 47.8046 67.4581 36.9414 57.8006 30.642C48.1416 24.3426 36.7184 22.6724 28.157 23.945C19.5972 25.2176 15.4167 29.0194 12.7649 32.5589Z" stroke="#857765" stroke-width="1.2" stroke-linecap="round" stroke-linejoin="round"/>
<path d="M22.6996 61.4234C23.1768 52.337 23.654 43.2507 23.9515 37.7483C24.2506 32.2443 24.3731 30.3258 26.1499 33.0826C27.9268 35.8394 31.3564 43.2714 34.7877 50.7033M37.4665 50.8863C40.9646 44.4549 44.461 38.0235 46.7294 34.5525C48.9978 31.0815 50.0398 30.5708 51.4285 36.8272C52.8172 43.0837 54.5512 56.1008 56.2851 69.1194" stroke="#857765" stroke-width="1.2" stroke-linecap="round" stroke-linejoin="round"/>
</svg>
