<svg width="16" height="16" viewBox="0 0 16 16" fill="none" xmlns="http://www.w3.org/2000/svg">
<path fill-rule="evenodd" clip-rule="evenodd" d="M2.98461 2.0486C2.65861 2.13394 2.36394 2.36194 2.17661 2.67594C1.98927 2.98794 1.99994 2.6666 2.00127 8.01861C2.00327 13.3973 1.98994 13.0173 2.18727 13.3446C2.29861 13.5293 2.52461 13.7453 2.71394 13.8479C2.95461 13.9779 3.13261 13.9993 3.99994 13.9993C4.82594 13.9993 5.03661 13.9779 5.23994 13.8733C5.33727 13.8233 5.33861 13.8239 5.46194 13.8826C5.53061 13.9153 5.65794 13.9546 5.74461 13.9706C5.85394 13.9906 6.97461 13.9999 9.34461 13.9993C13.0953 13.9993 12.9973 14.0026 13.2873 13.8479C13.4659 13.7526 13.7526 13.4659 13.8479 13.2873C14.0053 12.9933 13.9993 13.1879 13.9993 8.33327C13.9993 3.47661 14.0046 3.67061 13.8479 3.38061C13.7233 3.16834 13.551 2.98802 13.3446 2.85394C13.0219 2.65927 13.2439 2.66994 9.32861 2.66794L5.81794 2.6666L5.76394 2.57994C5.61594 2.3426 5.27661 2.10794 4.98527 2.04127C4.70927 1.97861 3.23261 1.98394 2.98461 2.0486ZM4.66661 7.99994V12.6666H3.33327V3.33327H4.66661V7.99994ZM12.6666 8.33327V12.6666H5.99994V3.99994H12.6666V8.33327ZM7.44927 4.69394C7.16927 4.75061 6.88661 4.98394 6.75461 5.26661L6.67994 5.42661V7.23994L6.75527 7.40261C6.85061 7.60861 7.05661 7.81394 7.26661 7.91194L7.42661 7.9866H11.2399L11.4026 7.91127C11.6086 7.81594 11.8139 7.60994 11.9119 7.39994L11.9866 7.23994V5.42661L11.9119 5.26661C11.8025 5.04515 11.6236 4.86558 11.4026 4.75527L11.2399 4.67994L9.39994 4.67594C8.38794 4.67327 7.50994 4.68127 7.44927 4.69394ZM10.6666 6.33327V6.6666H7.99994V5.99994H10.6666V6.33327ZM7.78194 8.7086C7.60127 8.76394 7.42594 8.94794 7.37061 9.13994C7.24127 9.58261 7.54594 9.99794 7.99994 9.99927C8.58994 10.0006 8.88327 9.28794 8.46461 8.86927C8.27861 8.68261 8.04461 8.62794 7.78194 8.7086ZM10.4486 8.7086C10.3558 8.74135 10.272 8.79547 10.2039 8.86661C9.78127 9.28927 10.0706 9.99794 10.6666 9.99927C11.2566 10.0006 11.5499 9.28794 11.1313 8.86927C10.9453 8.68261 10.7113 8.62794 10.4486 8.7086ZM7.78194 10.7086C7.60127 10.7639 7.42594 10.9479 7.37061 11.1399C7.24127 11.5826 7.54594 11.9979 7.99994 11.9993C8.58994 12.0006 8.88327 11.2879 8.46461 10.8693C8.27861 10.6826 8.04461 10.6279 7.78194 10.7086ZM10.4486 10.7086C10.3558 10.7413 10.272 10.7955 10.2039 10.8666C9.78127 11.2893 10.0706 11.9979 10.6666 11.9993C11.2566 12.0006 11.5499 11.2879 11.1313 10.8693C10.9453 10.6826 10.7113 10.6279 10.4486 10.7086Z" fill="#DCDCDC"/>
</svg>
