<svg width="16" height="16" viewBox="0 0 16 16" fill="none" xmlns="http://www.w3.org/2000/svg">
<path fill-rule="evenodd" clip-rule="evenodd" d="M2.31804 2.71526C1.99204 2.80059 1.69737 3.02859 1.51004 3.34259C1.32404 3.65259 1.33337 3.40592 1.33471 8.01859C1.33604 11.8573 1.34004 12.1866 1.38204 12.3486C1.50204 12.8079 1.90671 13.1966 2.36604 13.2939C2.63737 13.3513 13.3627 13.3513 13.634 13.2939C13.8814 13.2419 14.0614 13.1393 14.2674 12.9339C14.4727 12.7279 14.5754 12.5479 14.6274 12.3006C14.6847 12.0306 14.6847 3.96925 14.6274 3.69925C14.53 3.23992 14.1414 2.83526 13.682 2.71526C13.5194 2.67259 13.1194 2.66992 8.00004 2.66992C2.88071 2.66992 2.48071 2.67259 2.31804 2.71526ZM13.2927 4.05126C13.1967 4.14392 8.01604 8.45326 8.00004 8.45326C7.98404 8.45326 2.80337 4.14392 2.70737 4.05126C2.65537 4.00059 2.72937 3.99992 8.00004 3.99992C13.2707 3.99992 13.3447 4.00059 13.2927 4.05126ZM5.11737 7.79992C6.75271 9.16126 7.49271 9.76059 7.59737 9.80992C7.72604 9.86992 7.78204 9.87992 8.00004 9.87992C8.21804 9.87992 8.27404 9.86992 8.40271 9.80992C8.50737 9.76059 9.24737 9.16126 10.8827 7.79992C12.1647 6.73259 13.24 5.83459 13.2734 5.80459L13.3334 5.75059V11.9999H2.66671V5.75059L2.72671 5.80459C2.75937 5.83459 3.83537 6.73259 5.11737 7.79992Z" fill="#DCDCDC"/>
</svg>
