<svg width="16" height="16" viewBox="0 0 16 16" fill="none" xmlns="http://www.w3.org/2000/svg">
<path fill-rule="evenodd" clip-rule="evenodd" d="M3.81263 1.46529C3.55596 1.51196 3.05263 1.78863 2.67796 2.08996C2.04129 2.60129 1.57929 3.31996 1.35329 4.15063C1.27063 4.45329 1.26729 4.48663 1.26863 4.94663C1.27129 5.92129 1.53863 6.95263 2.09929 8.14663C3.20863 10.512 5.47529 12.7766 7.85729 13.9006C8.97263 14.4266 9.98063 14.7013 10.9333 14.738C11.5186 14.7606 11.9973 14.6546 12.5733 14.3746C13.4153 13.9653 14.088 13.2726 14.446 12.4466C14.526 12.2626 14.5406 12.198 14.5413 12.028C14.5431 11.9149 14.5285 11.8022 14.498 11.6933C14.3713 11.3173 13.5346 10.4706 12.628 9.80063C12.1526 9.44996 11.462 8.97129 11.3453 8.91196C11.1573 8.82362 10.947 8.79411 10.742 8.82729C10.4526 8.87996 10.346 8.95529 9.79529 9.49996L9.28329 10.006L8.95463 9.83463C7.72263 9.19063 6.82196 8.29063 6.16996 7.05196L5.99396 6.71663L6.50396 6.20063C7.07129 5.62663 7.13729 5.52729 7.17329 5.19796C7.19663 4.98529 7.17129 4.81996 7.09063 4.66063C6.97863 4.43929 6.19129 3.31663 5.84263 2.87996C5.39663 2.32263 4.69063 1.66863 4.38729 1.53063C4.20503 1.45785 4.00658 1.43529 3.81263 1.46529ZM4.14329 3.00329C4.53863 3.36729 4.91929 3.83063 5.45129 4.59729L5.76396 5.04729L5.27129 5.54396C4.68196 6.13796 4.63596 6.21063 4.61863 6.57529C4.60796 6.80996 4.61063 6.82596 4.72129 7.10329C5.06129 7.95663 5.76796 9.00129 6.45729 9.66796C7.12529 10.3133 7.98329 10.888 8.81063 11.242C9.13129 11.3793 9.29596 11.4113 9.52663 11.3806C9.79996 11.3446 9.91862 11.2613 10.4553 10.7293L10.9513 10.2373L11.4186 10.57C12.158 11.0966 12.5973 11.4633 12.9986 11.888L13.1573 12.056L13.1113 12.1413C13.026 12.3 12.802 12.5786 12.6333 12.7366C12.208 13.1346 11.6573 13.382 11.1433 13.4066C10.3066 13.4473 8.93329 13.0246 7.79996 12.378C6.19196 11.4613 4.53863 9.80796 3.62196 8.19996C2.97063 7.05863 2.55329 5.69863 2.59396 4.85329C2.62063 4.30263 2.87529 3.76329 3.31863 3.31729C3.52796 3.10729 3.86929 2.85329 3.94263 2.85329C3.96329 2.85329 4.05329 2.92063 4.14329 3.00329Z" fill="#DCDCDC"/>
</svg>
