<?xml version="1.0" encoding="UTF-8"?>
<svg id="_圖層_2" data-name="圖層 2" xmlns="http://www.w3.org/2000/svg" viewBox="0 0 329.1 104.92">
  <g>
    <path d="M49.81,15.15c-6.88.65-22.38.1-22.38.1-23.62-.62-25.38,1.88-25.38,1.88-4.62,3.88,0,14.25,0,14.25,3.88,9.38,6,15.5,6,15.5,1.25,3.88,2.12,8.25,2.12,8.25,1.5,5.88,12.25,2.07,12.25,2.07,1.75-.8,5.62-1.57,5.62-1.57,4-.38,8.62,1.25,8.62,1.25,7.12,1.5,9.38-2.75,9.38-2.75.75-2.38,3.25-6.38,3.25-6.38,3.38-5.12,8.12-15.12,8.12-15.12,7.88-19.38-7.62-17.48-7.62-17.48ZM33.18,44.75s-4.38-.19-5.62.03c0,0-4.88-.78-4.88-6.78,0,0-1.75-7.89,6.5-7.88h5.75s5.75.75,5.5,5.88c0,0,.38,9.38-7.25,8.75Z" fill="#3459a7"/>
    <path d="M67.43,39.21s3.92.41,3-1.76c0,0-1.17-6.16-4.17-9.58,0,0-8.08-13.33.67-16.58,0,0,5.47-2.04,7.2,6.96.02.1.04.19.05.29,1.67,9.33,2.1,11.16,1.52,18.74,0,0-.5,1.17,2.17,1.34h3.31s3.56.25,1.69-9.12c0,0-4.6-27.88,4.56-29.46,0,0,7.17-1.17,9.92,9.17,0,0,.75,7.58,0,13.67,0,0-.08,2.83,2.92,2.33,0,0,2.33.74,4.75-5.59,0,0,6.58-12.74,13.08-7.83,0,0,5.33,6.17,0,13.25,0,0-8.58,8.34-10.08,11.71,0,0-3,4.71,2.75,3.71,0,0,18-3.25,18.92,2,0,0,1.5,4.42-12.5,3.98,0,0-5.19-.38-6.5,1.19,0,0-1.19,2.81,2.92,4.42,0,0,15.33,5.33,30.92,10.33,0,0,11.17,2.75,18.44,6.57,0,0,15.45,8.85,8.61,22.43,0,0-13.72,14.33-29.89.83,0,0-26.33-20.17-34.33-27.67,0,0-2.89-3.12-5.1-4.04,0,0-2.9-.62-1.23,10.62,0,0,5.42,25.67-4.17,28.58,0,0-13.25,5-16.83-5.83,0,0-1.92-7.08,2.17-29.58,0,0,0-4.17-4.67-1.25,0,0-3.83,2.5-9.33,6.83,0,0-9,5.33-15-1.17,0,0-4-6.1,4-10.3,0,0,12.17-6.7,14.83-9.7,0,0,2.33-4.69-5.17-3.93,0,0-10.67,1.93-10.17-3.07,0,0-.5-4.17,10.75-2.5Z" fill="#3459a7"/>
  </g>
  <g>
    <path d="M212.87,24.26c-6.47.61-21.06.09-21.06.09-22.23-.59-23.88,1.76-23.88,1.76-4.35,3.65,0,13.41,0,13.41,3.65,8.82,5.65,14.59,5.65,14.59,1.18,3.65,2,7.76,2,7.76,1.41,5.53,11.53,1.95,11.53,1.95,1.65-.76,5.29-1.48,5.29-1.48,3.76-.35,8.12,1.18,8.12,1.18,6.7,1.41,8.82-2.59,8.82-2.59.71-2.23,3.06-6,3.06-6,3.18-4.82,7.65-14.23,7.65-14.23,7.41-18.23-7.18-16.45-7.18-16.45ZM197.23,52.11s-4.12-.18-5.29.03c0,0-4.59-.73-4.59-6.38,0,0-1.65-7.42,6.12-7.41h5.41s5.41.71,5.18,5.53c0,0,.35,8.82-6.82,8.23Z" fill="#3459a7"/>
    <path d="M229.46,46.9s3.69.38,2.82-1.65c0,0-1.1-5.8-3.92-9.01,0,0-7.61-12.55.63-15.61,0,0,5.14-1.92,6.77,6.55.02.09.03.18.05.27,1.57,8.78,1.98,10.5,1.43,17.64,0,0-.47,1.1,2.04,1.26h3.12s3.35.24,1.59-8.59c0,0-4.33-26.23,4.29-27.72,0,0,6.74-1.1,9.33,8.63,0,0,.71,7.14,0,12.86,0,0-.08,2.67,2.75,2.2,0,0,2.2.7,4.47-5.26,0,0,6.2-11.99,12.31-7.37,0,0,5.02,5.8,0,12.47,0,0-8.08,7.85-9.49,11.02,0,0-2.82,4.43,2.59,3.49,0,0,16.94-3.06,17.8,1.88,0,0,1.41,4.16-11.76,3.74,0,0-4.88-.35-6.12,1.12,0,0-1.12,2.64,2.75,4.16,0,0,14.43,5.02,29.09,9.72,0,0,10.51,2.59,17.35,6.18,0,0,14.54,8.33,8.11,21.11,0,0-12.91,13.49-28.12.78,0,0-24.78-18.98-32.31-26.04,0,0-2.72-2.93-4.8-3.8,0,0-2.73-.59-1.16,10,0,0,5.1,24.15-3.92,26.9,0,0-12.47,4.71-15.84-5.49,0,0-1.81-6.67,2.04-27.84,0,0,0-3.92-4.39-1.18,0,0-3.61,2.35-8.78,6.43,0,0-8.47,5.02-14.12-1.1,0,0-3.76-5.74,3.76-9.69,0,0,11.45-6.3,13.96-9.13,0,0,2.2-4.41-4.86-3.7,0,0-10.04,1.81-9.57-2.89,0,0-.47-3.92,10.12-2.35Z" fill="#3459a7"/>
  </g>
</svg>