<?xml version="1.0" encoding="UTF-8"?>
<svg id="_圖層_2" data-name="圖層 2" xmlns="http://www.w3.org/2000/svg" viewBox="0 0 237.88 152.94">
  <path d="M76.87.5s-10.75,0-11.5,10.25c0,0,.25,5.62,0,10.38,0,0,.38,5.62-2.5,6.25,0,0-9.88,1.5-17.5,5.88,0,0-4,1.25-7.25-1.5,0,0-4-4-9.5-.25,0,0-6.12,3.25-9,10,0,0-2.12,5.25.62,8.12,0,0,2.25,1.75,3.62,2.62,0,0,3.12,1.62.88,5.25,0,0-2.12,2.12-5.12,4.38,0,0-4,2.5-3.62,5,0,0,.62,3.62,11.12,3.88,0,0,15.12,3.75,28.38,0,0,0,7.88-2,13.25-2.5,0,0,3.12-.38-1.25,3.62,0,0-7,8.38-8.75,14.5,0,0-2.25,5.12,1.38,6.75,0,0,3.62,2.12,9.88,3.25,0,0,10.88,1.88,11.75,11,0,0,2.38,16.75-7.88,25.88,0,0-9.5,8.62-15.62,9.62,0,0-6.5,1.44-14.19.19,0,0-12.44-2.19-14.69.48,0,0-3.06,5.77,4.88,7.96,0,0,8,2.12,25.38,0,0,0,12.12-1.62,18.25-11.62,0,0,8-13.25,8.12-18.12,0,0,.12-3.69,2.62-.62,0,0,8.75,11.88,15.75,20.38,0,0,5,5.75,8.5,6,0,0,8.5,1.62,25-6.25,0,0,6.83-2.75.22-4.23,0,0-8.6-3.19-13.72-7.65,0,0-17.38-15.62-24-22.25,0,0-4.12-3.69-6.75-4,0,0-5.56-.94-7.62-.31,0,0-2.12.06-.56-2.19,0,0,1.25-2.75.5-6.62,0,0-2.06-4.88-9.31-6.69,0,0-3-1-5.5-2.69,0,0-5-2.44-.69-3.38,0,0,8.87-3.62,13.19-10.12,0,0,8.12-9.62,7.44-16.44,0,0-.06-3.06-4.56-5.75,0,0-4.38-2.62-14.12-2.06,0,0-13.67.62-21.5,2.88,0,0-5.25.83-9.67,1.42,0,0-5.67.75-5.92-1.5,0,0-.83-3.08,5.75-6,0,0,14.83-6.92,39.33-14.25,0,0,4.38-1.85,21.42-1.5,0,0,6.17.08,11.58.5,0,0,9.75.83,11.33,8,0,0,1.08,3.5-2.5,6.17,0,0-3.58,3.17-2.5,5.33,0,0,1,2.5,6.17-2.67,0,0,1-1.33,4.92-4.75,0,0,4.33-3.33,1.25-9.25,0,0-7.5-13.5-18.67-13.25,0,0-14-1-23.5.42,0,0-5.92,1.92-4.83-1.42,0,0,1.25-1.67,1.08-5.92,0,0-.56-5.77-3.08-7.92,0,0-2.79-2.68-6.17-2.67Z" fill="#006935" stroke="#006935" stroke-linecap="round" stroke-linejoin="round"/>
  <path d="M47.95,95.83s-1.5,2.08-12.5,5.75c0,0-14.42,5.67-22.25,9.17,0,0-3.17,1.08-7.67,1.17,0,0-8-.67-3.83,3.5,0,0,5.08,4.33,7.17,6.08,0,0,4.67,4.08,12.25-.92,0,0,4-1.92,17.25-6.83,0,0,9.08-3.5,10.08-6.67,0,0,1.92-2.83,2.5-9.25,0,0-.58-4.42-3-2Z" fill="#006935" stroke="#006935" stroke-linecap="round" stroke-linejoin="round"/>
  <path d="M57.12,112.09s5.25-2.95,7.33-5.25c0,0,1.75-2.67,2.92-.83,0,0,3.33,5.33-2,9,0,0-2.25,2.33-3.58,4.58,0,0-7.58,10.58-20,14.42,0,0-8.58,2.5-19.83,1.08,0,0-11.83-2.67-6.92-3.33,0,0,5.17-1.25,18.92-6.17,0,0,7.55-3.56,17-9.5,0,0,3.11-2.42,6.17-4Z" fill="#006935" stroke="#006935" stroke-linecap="round" stroke-linejoin="round"/>
  <path d="M107.04,86.08s-8.5.75-8.08,9.92c0,0,.42,6.08,8.08,7.42,0,0,8.83,1.94,9.67-8.33,0,0,.25-9.17-9.67-9Z" fill="#006935" stroke="#006935" stroke-linecap="round" stroke-linejoin="round"/>
  <path d="M236.79,75.5s-.67-12.5-14-18.33c0,0-18.67-8.17-43.5-8.83,0,0-17-.67-20,4.67,0,0-6.67,7-9.17,18.83,0,0-4.5,22-1.67,33.33,0,0,3,11.83,8.5,21.33,0,0,7,11.67,14.83,11.17,0,0,1.67-1,6.33,1.17,0,0,19.68,4.17,44.5-12.5,0,0,12.33-9.5,14.17-28,0,0,1.33-13,0-22.83ZM166.45,84.08c-1.42-4.58-1.67-15.75-1.67-15.75-.08-4.67,5.92-7.08,5.92-7.08,7.83-4.5,18.17,0,18.17,0,2.17.25,1.17,3.08,1.17,3.08-.67,2.67-.42,6.83-.42,6.83-.04,4.25-1.75,16.08-1.75,16.08h-19.17c-1.67-.08-2.25-3.17-2.25-3.17ZM229.37,91.83s-1.76,8.42-6.01,13.83c0,0-7.42,10.58-10.42,13.75,0,0-9.17,8.75-24.42,8.25,0,0-15.33-1.08-19.42-16.75,0,0-3-9.97,2.25-10.17,0,0,12.5-.5,15.33-.42,0,0,3.58.08,2.25,3.17,0,0-1.08,3.58-.92,7.42,0,0-.84,13.25,4.41,12.92,0,0,6.42,1.5,7.09-7.58,0,0,.42-5.08,1.75-16.5,0,0-.33-3.92,1.83-3.67,0,0,6.67-.58,10.83-.42,0,0,5.33,0,6.08-4.83,0,0,.17-2.25.67-4,0,0,1.08-3.75-3.33-3.58,0,0-7.58-1.33-12.67.33,0,0-1.58-.75-1.42-5,0,0,.83-10.67.33-12.33,0,0-.67-2.17,2.5-1.83,0,0,13.92,1.5,19.67,4,0,0,3.75,2,3.58,5.25,0,0,.59,8.5,0,18.17Z" fill="#006935" stroke="#006935" stroke-linecap="round" stroke-linejoin="round"/>
</svg>